<svg xmlns="http://www.w3.org/2000/svg" width="30" height="31" fill="none"><path fill="#18383C" d="M16.202 26.025a2.54 2.54 0 0 1-1.363-.403 2.506 2.506 0 0 1-1.101-2.765c.38-1.502 1.538-6.077.328-6.517-1.208-.44-3.26 3.807-3.936 5.203a2.501 2.501 0 0 1-2.62 1.41 2.494 2.494 0 0 1-2.153-2.043c-.603-3.22-.518-7.145.235-10.77.804-3.877 2.252-6.867 4.075-8.413C11.11.504 12.778.183 14.487.807c.942.343 1.69.9 2.41 1.44.63.468 1.224.912 1.876 1.15.651.238 1.394.28 2.175.324.9.051 1.83.103 2.772.447 1.71.623 2.782 1.937 3.1 3.804.404 2.359-.408 5.575-2.283 9.064-1.753 3.258-4.21 6.323-6.742 8.402a2.469 2.469 0 0 1-1.593.587Zm-2.322-11.27c.235 0 .473.041.716.13 2.527.92 1.394 5.394.644 8.355-.13.51.137.887.427 1.073.14.088.639.35 1.146-.07 5.055-4.156 9.177-11.932 8.482-16.005-.225-1.321-.913-2.174-2.103-2.606-.727-.264-1.505-.31-2.33-.357-.86-.05-1.75-.101-2.617-.417-.866-.315-1.582-.848-2.273-1.365-.662-.494-1.285-.96-2.014-1.226-1.19-.432-2.263-.222-3.287.647-3.147 2.674-4.989 11.28-3.786 17.714.121.646.67.768.835.789a.96.96 0 0 0 1.016-.546c1.2-2.485 2.954-6.116 5.144-6.116Z"/><path fill="#18383C" d="M12.559 30.496a9.409 9.409 0 0 1-3.235-.56c-2.584-.942-4.743-2.952-6.243-5.817C1.726 21.533.984 18.345.986 15.143a.776.776 0 0 1 1.552 0c-.01 7.368 3.667 12.004 7.313 13.334 6.178 2.25 14.546-3.87 18.658-13.636a.775.775 0 1 1 1.43.602c-2.1 4.989-5.343 9.253-9.131 12.007-2.77 2.012-5.606 3.046-8.25 3.046Z"/></svg>