<svg xmlns="http://www.w3.org/2000/svg" width="14" height="15" fill="none"><path fill="#76824A" d="M7.1 12.41c-.218 0-.437-.063-.635-.189a1.17 1.17 0 0 1-.514-1.29c.177-.7.718-2.836.153-3.04-.564-.206-1.522 1.775-1.837 2.427a1.167 1.167 0 0 1-1.222.658 1.164 1.164 0 0 1-1.006-.954c-.28-1.502-.24-3.334.11-5.026C2.525 3.187 3.2 1.792 4.051 1.07 4.725.5 5.503.35 6.301.64c.439.161.788.42 1.124.673.294.218.571.426.875.537.304.111.65.13 1.015.15.42.025.855.05 1.294.21.798.29 1.298.904 1.447 1.775.188 1.1-.19 2.602-1.066 4.23-.818 1.52-1.964 2.95-3.146 3.92-.217.183-.479.274-.743.274ZM6.018 7.15c.11 0 .22.02.334.06 1.18.43.65 2.518.3 3.9a.45.45 0 0 0 .2.5.443.443 0 0 0 .535-.032c2.359-1.94 4.282-5.568 3.958-7.469-.105-.617-.426-1.015-.981-1.216-.34-.123-.703-.145-1.088-.167-.401-.023-.817-.047-1.22-.194-.405-.147-.74-.396-1.062-.637-.309-.23-.6-.448-.94-.572-.555-.202-1.056-.104-1.534.301-1.468 1.248-2.328 5.264-1.766 8.267a.443.443 0 0 0 .39.368.448.448 0 0 0 .474-.255c.56-1.16 1.378-2.854 2.4-2.854Z"/><path fill="#76824A" d="M5.4 14.496a4.39 4.39 0 0 1-1.51-.262c-1.205-.439-2.213-1.377-2.912-2.714C.345 10.313-.002 8.825 0 7.331a.362.362 0 0 1 .724 0c-.005 3.439 1.711 5.602 3.413 6.223 2.883 1.05 6.788-1.806 8.707-6.364a.362.362 0 1 1 .667.281c-.98 2.328-2.493 4.318-4.26 5.604-1.293.938-2.617 1.421-3.85 1.421Z"/></svg>