<svg xmlns="http://www.w3.org/2000/svg" width="13" height="15" fill="none"><path fill="#76824A" d="M3.63 14.496c-.635 0-1.303-.622-1.39-2.03-.147-2.338-.486-2.988-1.39-4.726L.626 7.32C-.07 5.973-.315 3.796.57 2.242 1.004 1.48 1.893.558 3.665.499c.923-.03 1.703.176 2.323.62.62-.444 1.4-.653 2.32-.62C10.104.56 11 1.503 11.437 2.282c.88 1.573.623 3.726-.085 5.04l-.094.172c-.212.391-.391.726-.546 1.026a.246.246 0 0 1-.336.107.255.255 0 0 1-.105-.343c.157-.305.339-.643.55-1.036l.093-.173c.64-1.191.877-3.134.09-4.544-.536-.957-1.473-1.483-2.712-1.526-.872-.028-1.6.18-2.148.627a.247.247 0 0 1-.312 0c-.55-.447-1.276-.655-2.15-.627-1.242.04-2.144.543-2.682 1.49C.204 3.89.43 5.856 1.064 7.08l.219.422c.915 1.755 1.293 2.48 1.448 4.932.062 1.023.496 1.552.895 1.552h.015c.456-.016.917-.684.917-1.933 0-1.08.229-1.836.685-2.253a1.14 1.14 0 0 1 .798-.317c.1-.005.4.005.702.279.446.404.67 1.173.67 2.288 0 1.245.464 1.91.92 1.925h.015c.384 0 .823-.48.89-1.544.057-.922.13-1.536.24-2.062a.249.249 0 0 1 .296-.196c.135.03.22.165.192.303-.105.497-.172 1.092-.23 1.986-.087 1.4-.752 2.019-1.385 2.019h-.03c-.675-.023-1.4-.793-1.4-2.43 0-1.184-.267-1.685-.49-1.898-.184-.175-.353-.165-.36-.165h-.05c-.008 0-.227-.015-.449.198-.232.219-.508.721-.508 1.862 0 1.656-.703 2.418-1.401 2.44-.012.008-.022.008-.032.008Z"/><path fill="#76824A" d="M1.555 3.273a.254.254 0 0 1-.23-.353C1.731 1.932 2.47 1.66 2.5 1.65a.246.246 0 0 1 .317.157.254.254 0 0 1-.152.323c-.028.01-.564.221-.88.988a.249.249 0 0 1-.23.155ZM7.73 8.396a2.702 2.702 0 0 1-2.333-1.338c-.777-1.309-.368-3.018.915-3.813a2.658 2.658 0 0 1 2.059-.323 2.702 2.702 0 0 1 1.68 1.258c.376.635.488 1.379.316 2.097A2.746 2.746 0 0 1 9.133 7.99c-.426.27-.91.407-1.403.407Zm-.007-5.044c-.401 0-.798.111-1.15.33-1.048.647-1.382 2.044-.747 3.114.31.518.795.88 1.373 1.026.579.144 1.174.05 1.683-.265a2.25 2.25 0 0 0 1.007-1.399 2.28 2.28 0 0 0-.26-1.714 2.215 2.215 0 0 0-1.906-1.092Z"/><path fill="#76824A" d="M10.806 11.045a.25.25 0 0 1-.215-.122L8.794 7.905a.253.253 0 0 1 .085-.348.243.243 0 0 1 .342.087l1.797 3.017a.253.253 0 0 1-.212.384Z"/><path fill="#76824A" d="M12.007 13.876a.533.533 0 0 1-.461-.264L10.27 11.47a.556.556 0 0 1 .182-.755l.453-.279a.534.534 0 0 1 .74.185l1.277 2.144a.547.547 0 0 1 .062.414.54.54 0 0 1-.244.338l-.454.28a.531.531 0 0 1-.279.08Zm-.847-3.01-.454.28c-.02.01-.025.036-.012.056l1.276 2.144c.007.012.017.017.024.017.008.003.018.003.03-.005l.454-.28c.013-.007.018-.017.018-.024 0-.008.002-.018-.005-.031l-1.277-2.143c-.01-.018-.034-.023-.054-.013Z"/></svg>