<svg xmlns="http://www.w3.org/2000/svg" width="25" height="27" fill="none"><path fill="#18383C" d="M7.378 26.416c-1.196 0-2.452-1.149-2.616-3.746-.277-4.317-.914-5.517-2.616-8.723l-.417-.778c-1.312-2.485-1.772-6.502-.108-9.37C2.437 2.391 4.111.69 7.443.582c1.735-.056 3.202.323 4.369 1.144C12.979.907 14.446.522 16.176.583c3.375.112 5.063 1.851 5.883 3.29 1.655 2.902 1.172 6.877-.16 9.3l-.178.32c-.398.721-.736 1.34-1.026 1.893a.467.467 0 0 1-.633.197.467.467 0 0 1-.197-.633c.295-.563.638-1.186 1.036-1.912l.174-.32c1.204-2.198 1.65-5.784.168-8.385-1.008-1.767-2.77-2.738-5.1-2.817-1.64-.052-3.01.332-4.04 1.157a.472.472 0 0 1-.586 0c-1.036-.825-2.4-1.209-4.046-1.157-2.334.075-4.03 1.003-5.043 2.751-1.496 2.574-1.07 6.202.122 8.461l.412.778c1.72 3.24 2.433 4.58 2.723 9.103.118 1.89.933 2.864 1.683 2.864h.028c.858-.028 1.725-1.26 1.725-3.567 0-1.992.432-3.389 1.29-4.158.642-.576 1.303-.59 1.5-.585.187-.01.754.009 1.321.515.84.745 1.261 2.166 1.261 4.223 0 2.297.872 3.526 1.73 3.554h.028c.722 0 1.547-.886 1.673-2.85.108-1.702.244-2.836.45-3.807a.468.468 0 0 1 .558-.36.474.474 0 0 1 .361.557c-.197.919-.323 2.016-.431 3.666-.164 2.583-1.416 3.726-2.606 3.726H16.2c-1.27-.042-2.635-1.462-2.635-4.486 0-2.184-.501-3.107-.919-3.501-.347-.323-.665-.305-.68-.305h-.093c-.014 0-.427-.028-.844.366-.436.403-.956 1.331-.956 3.436 0 3.056-1.322 4.462-2.634 4.505-.024.014-.043.014-.061.014Z"/><path fill="#18383C" d="M3.473 5.702a.465.465 0 0 1-.431-.652c.764-1.823 2.151-2.325 2.208-2.344a.466.466 0 0 1 .595.29.467.467 0 0 1-.286.596c-.052.019-1.06.408-1.655 1.824a.468.468 0 0 1-.431.286ZM15.089 15.156c-.408 0-.82-.051-1.229-.15a5.074 5.074 0 0 1-3.159-2.32 5.13 5.13 0 0 1 1.72-7.036 5.08 5.08 0 0 1 3.872-.595 5.074 5.074 0 0 1 3.16 2.32 5.1 5.1 0 0 1 .595 3.872 5.074 5.074 0 0 1-2.32 3.16 4.99 4.99 0 0 1-2.64.75Zm-.014-9.31a4.188 4.188 0 0 0-3.567 6.356 4.16 4.16 0 0 0 2.582 1.895 4.141 4.141 0 0 0 3.164-.488 4.16 4.16 0 0 0 1.894-2.582 4.14 4.14 0 0 0-.488-3.165 4.159 4.159 0 0 0-2.582-1.893 4.08 4.08 0 0 0-1.003-.122Z"/><path fill="#18383C" d="M20.873 20.045a.471.471 0 0 1-.403-.225l-3.38-5.569a.462.462 0 0 1 .16-.642.462.462 0 0 1 .642.16l3.38 5.568a.462.462 0 0 1-.4.708Z"/><path fill="#18383C" d="M23.132 25.272a1 1 0 0 1-.867-.487l-2.4-3.957a1.014 1.014 0 0 1 .342-1.392l.853-.516a1.014 1.014 0 0 1 1.393.342l2.4 3.957c.14.23.182.501.117.764a1 1 0 0 1-.46.623l-.853.516c-.164.098-.342.15-.525.15Zm-1.593-5.555-.854.516c-.037.018-.046.065-.023.103l2.4 3.956c.014.024.033.033.047.033.014.005.033.005.056-.01l.853-.515c.024-.014.033-.033.033-.047 0-.014.005-.033-.01-.056l-2.4-3.956c-.018-.033-.065-.043-.102-.024Z"/></svg>