<svg width="18" height="21" viewBox="0 0 18 21" fill="none" xmlns="http://www.w3.org/2000/svg">
<path d="M1.88627 0.0566406L10.6994 8.86812L12.9736 6.59393C9.86601 4.70848 5.70388 2.17918 3.83202 1.04196L2.57798 0.28224C2.35631 0.147201 2.11898 0.0744674 1.88627 0.0566406ZM0.540986 1.11163C0.523151 1.20845 0.507812 1.30575 0.507812 1.41021V18.8242C0.507812 18.8972 0.522506 18.9652 0.532697 19.0348L9.49845 10.0691L0.540986 1.11163ZM14.4682 7.50128L11.9004 10.0691L14.4234 12.5921C15.7602 11.7819 16.6861 11.2192 16.7888 11.1572C17.2432 10.8795 17.4998 10.4605 17.4921 10.0027C17.4854 9.55346 17.2287 9.15176 16.7921 8.90462C16.6945 8.84856 15.7812 8.29707 14.4682 7.50128ZM10.6994 11.27L1.91281 20.0566C2.08352 20.0269 2.25401 19.976 2.41708 19.8775C2.64299 19.7399 8.74602 16.0372 12.9288 13.4994L10.6994 11.27Z" fill="#76824A"/>
</svg>
