<svg xmlns="http://www.w3.org/2000/svg" width="22" height="31" fill="none"><path fill="#18383C" d="M16.706.498a10.93 10.93 0 0 0-3.75.556 4.588 4.588 0 0 1-3.187 0 10.931 10.931 0 0 0-3.75-.556C3.625.498.75 1.598.75 6.848c0 3.644 2.356 5.625 2.794 8.325a1.875 1.875 0 0 0 1.875 1.575h.331v1.875h-.625a.626.626 0 0 0 .063 1.25h.562v1.875h-.625a.626.626 0 0 0 .063 1.25h.562v1.875h-.625a.626.626 0 0 0 .063 1.25h.625a3.125 3.125 0 0 0 1.08 1.875c1.77 1.475 2.67 2.5 4.5 2.5 1.832 0 2.744-1.056 4.5-2.5A3.125 3.125 0 0 0 17 25.53h.625a.626.626 0 0 0-.063-1.25h-.625v-1.875h.625a.626.626 0 0 0-.062-1.25h-.625V19.28l.625-.03a.626.626 0 0 0-.063-1.25l-.625.03v-1.28h.357a1.875 1.875 0 0 0 1.875-1.576C19.637 12.486 22 10.498 22 6.848c0-5.25-2.875-6.35-5.294-6.35Zm-1.631 26.519-1.887 1.606a2.912 2.912 0 0 1-3.626 0c-1.924-1.606-2.306-1.769-2.5-2.562l8.688-.47a1.876 1.876 0 0 1-.675 1.426Zm.675-2.675L7 24.779v-1.875l8.75-.437v1.875Zm0-3.125L7 21.654V19.78l8.75-.437v1.875Zm0-3.125L7 18.529v-1.78h8.75v1.343Zm2.219-3.125c-.113.7.319.525-12.575.525a.625.625 0 0 1-.625-.525C4.306 11.979 2 10.129 2 6.848c0-2.187.419-5.1 4.044-5.1a9.788 9.788 0 0 1 3.3.475 5.756 5.756 0 0 0 4.062 0 9.788 9.788 0 0 1 3.3-.475c3.625 0 4.044 2.913 4.044 5.1 0 3.256-2.306 5.169-2.781 8.125v-.006Z"/></svg>