<svg xmlns="http://www.w3.org/2000/svg" width="11" height="15" fill="none"><path fill="#76824A" d="M7.946.497a5.101 5.101 0 0 0-1.75.26 2.14 2.14 0 0 1-1.487 0 5.101 5.101 0 0 0-1.75-.26C1.842.497.5 1.01.5 3.46c0 1.7 1.1 2.625 1.304 3.885a.875.875 0 0 0 .875.735h.154v.875h-.291a.292.292 0 0 0 .029.584h.262v.875h-.291a.292.292 0 0 0 .029.583h.262v.875h-.291a.292.292 0 1 0 .029.583h.291c.06.343.238.653.505.875.825.689 1.245 1.167 2.1 1.167s1.28-.493 2.1-1.167a1.459 1.459 0 0 0 .516-1.152h.292a.292.292 0 1 0-.03-.583h-.29v-.875h.29a.292.292 0 0 0-.028-.583h-.292v-.875l.292-.015a.292.292 0 0 0-.03-.583l-.291.014V8.08h.166a.875.875 0 0 0 .875-.735c.277-1.254 1.38-2.181 1.38-3.885 0-2.45-1.342-2.963-2.47-2.963Zm-.761 12.375-.88.75a1.359 1.359 0 0 1-1.692 0c-.899-.75-1.077-.825-1.167-1.196l4.054-.219a.875.875 0 0 1-.315.665Zm.315-1.248-4.083.204v-.875L7.5 10.75v.875Zm0-1.458-4.083.204v-.875L7.5 9.29v.875Zm0-1.459-4.083.205V8.08H7.5v.627ZM8.535 7.25c-.052.327.15.245-5.868.245a.292.292 0 0 1-.292-.245C2.16 5.855 1.083 4.992 1.083 3.46c0-1.02.196-2.38 1.887-2.38a4.567 4.567 0 0 1 1.54.222c.611.23 1.285.23 1.896 0a4.567 4.567 0 0 1 1.54-.222c1.692 0 1.887 1.36 1.887 2.38 0 1.52-1.076 2.412-1.298 3.792v-.003Z"/></svg>