<svg width="31" height="31" viewBox="0 0 31 31" fill="none" xmlns="http://www.w3.org/2000/svg">
<rect x="0.362549" y="0.5" width="30" height="30" rx="15" fill="#76824A"/>
<path d="M11.7235 15.9404C11.417 16.5429 11.765 16.8309 12.559 17.3229C13.234 17.7399 14.1665 17.8924 14.7655 17.9534C14.52 18.1894 15.6451 17.1074 12.405 20.224C11.718 20.8825 12.824 21.939 13.5105 21.2945L15.369 19.5019C16.0806 20.1865 16.7626 20.8425 17.2276 21.297C17.9146 21.944 19.0201 20.8965 18.3406 20.2264C18.2896 20.1779 15.8221 17.8109 15.9726 17.9559C16.5791 17.8949 17.4976 17.7334 18.1646 17.3254C18.9586 16.8309 19.3061 16.5429 19.0041 15.9404C18.8216 15.5984 18.3296 15.3124 17.6746 15.8069C17.6746 15.8069 16.7901 16.4844 15.3635 16.4844C13.9365 16.4844 13.0525 15.8069 13.0525 15.8069C12.398 15.3099 11.904 15.5984 11.7235 15.9404Z" fill="#E8E6D4"/>
<path d="M15.3626 15.571C17.1016 15.571 18.5216 14.212 18.5216 12.539C18.5216 10.859 17.1016 9.5 15.3626 9.5C13.6231 9.5 12.2031 10.859 12.2031 12.539C12.2031 14.212 13.6231 15.571 15.3626 15.571ZM15.3626 11.0395C16.2171 11.0395 16.9141 11.71 16.9141 12.539C16.9141 13.361 16.2171 14.0315 15.3626 14.0315C14.5081 14.0315 13.8111 13.361 13.8111 12.539C13.8106 11.7095 14.5076 11.0395 15.3626 11.0395Z" fill="#E8E6D4"/>
</svg>
