<svg width="30" height="30" viewBox="0 0 30 30" fill="none" xmlns="http://www.w3.org/2000/svg">
<rect x="0.5" y="0.5" width="29" height="29" rx="14.5" fill="#E8E6D4"/>
<rect x="0.5" y="0.5" width="29" height="29" rx="14.5" stroke="#76824A"/>
<path d="M11.361 15.4404C11.0545 16.0429 11.4025 16.3309 12.1965 16.8229C12.8715 17.2399 13.804 17.3924 14.403 17.4534C14.1575 17.6894 15.2825 16.6074 12.0425 19.724C11.3555 20.3825 12.4615 21.439 13.148 20.7945L15.0065 19.0019C15.718 19.6865 16.4 20.3425 16.865 20.797C17.552 21.444 18.6575 20.3965 17.978 19.7264C17.927 19.6779 15.4595 17.3109 15.61 17.4559C16.2165 17.3949 17.135 17.2334 17.802 16.8254C18.596 16.3309 18.9435 16.0429 18.6415 15.4404C18.459 15.0984 17.967 14.8124 17.312 15.3069C17.312 15.3069 16.4275 15.9844 15.001 15.9844C13.574 15.9844 12.69 15.3069 12.69 15.3069C12.0355 14.8099 11.5415 15.0984 11.361 15.4404Z" fill="#76824A"/>
<path d="M15 15.071C16.739 15.071 18.159 13.712 18.159 12.039C18.159 10.359 16.739 9 15 9C13.2605 9 11.8405 10.359 11.8405 12.039C11.8405 13.712 13.2605 15.071 15 15.071ZM15 10.5395C15.8545 10.5395 16.5515 11.21 16.5515 12.039C16.5515 12.861 15.8545 13.5315 15 13.5315C14.1455 13.5315 13.4485 12.861 13.4485 12.039C13.448 11.2095 14.145 10.5395 15 10.5395Z" fill="#76824A"/>
</svg>
