<svg width="15" height="15" viewBox="0 0 15 15" fill="none" xmlns="http://www.w3.org/2000/svg">
<path fill-rule="evenodd" clip-rule="evenodd" d="M6.37352 8.48903C5.77128 7.88788 5.23747 7.22244 4.78376 6.50499C4.61808 6.24296 4.61983 5.92815 4.78829 5.668L5.43579 4.66831C5.57394 4.45492 5.60029 4.21145 5.51099 3.97351L4.39722 1.0051C4.22283 0.540227 3.67081 0.356286 3.25237 0.623626C2.73448 0.95454 2.21648 1.28545 1.69856 1.61637C0.989454 2.06945 0.660236 2.88391 0.855579 3.70245C1.45679 6.22179 2.76808 8.48903 4.58045 10.2821C6.37352 12.0945 8.64073 13.4058 11.1601 14.007C11.9786 14.2023 12.7931 13.8731 13.2462 13.164C13.5771 12.6461 13.908 12.1281 14.2389 11.6102C14.5063 11.1917 14.3223 10.6397 13.8575 10.4653L10.8891 9.35156C10.6511 9.26225 10.4077 9.28861 10.1943 9.42675L9.19458 10.0743C8.93443 10.2427 8.61962 10.2445 8.35758 10.0788C7.64011 9.62505 6.97467 9.09127 6.37352 8.48903Z" fill="#76824A"/>
</svg>
