<svg width="81" height="15" viewBox="0 0 81 15" fill="none" xmlns="http://www.w3.org/2000/svg">
<path d="M15.2697 5.80428C15.1495 5.43938 14.8307 5.1741 14.4467 5.11872L10.5562 4.55907L8.81777 1.0816C8.47355 0.394024 7.3359 0.394024 6.99168 1.0816L5.25324 4.55907L1.37198 5.11872C0.989013 5.1741 0.670263 5.44031 0.550107 5.80536C0.42995 6.16934 0.529794 6.56966 0.807763 6.83773L3.62277 9.554L2.9587 13.3863C2.89355 13.7644 3.05042 14.1475 3.36402 14.3734C3.6787 14.5981 4.09527 14.6275 4.43745 14.449L7.90433 12.6392L11.3814 14.449C11.5301 14.5267 11.6931 14.565 11.855 14.565C12.0657 14.565 12.2765 14.4994 12.4548 14.3735C12.7686 14.1466 12.9253 13.7645 12.8601 13.3865L12.1971 9.55415L15.0122 6.83789C15.2901 6.57059 15.3898 6.16934 15.2697 5.80428Z" fill="#76824A"/>
<path d="M31.5648 5.80428C31.4447 5.43938 31.1259 5.1741 30.7419 5.11872L26.8514 4.55907L25.1129 1.0816C24.7687 0.394024 23.6311 0.394024 23.2869 1.0816L21.5484 4.55907L17.6672 5.11872C17.2842 5.1741 16.9654 5.44031 16.8453 5.80536C16.7251 6.16934 16.825 6.56966 17.1029 6.83773L19.9179 9.554L19.2539 13.3863C19.1887 13.7644 19.3456 14.1486 19.6592 14.3734C19.9729 14.5981 20.3904 14.6275 20.7326 14.449L24.1995 12.6392L27.6765 14.449C27.8253 14.5267 27.9883 14.565 28.1501 14.565C28.3609 14.565 28.5717 14.4994 28.75 14.3735C29.0637 14.1466 29.2205 13.7645 29.1553 13.3865L28.4923 9.55415L31.3073 6.83789C31.5853 6.57059 31.685 6.16934 31.5648 5.80428Z" fill="#76824A"/>
<path d="M47.8599 5.80428C47.7398 5.43938 47.421 5.1741 47.037 5.11872L43.1465 4.55907L41.4081 1.0816C41.0638 0.394024 39.9262 0.394024 39.582 1.0816L37.8435 4.55907L33.9623 5.11872C33.5793 5.1741 33.2606 5.44031 33.1404 5.80536C33.0202 6.16934 33.1201 6.56966 33.398 6.83773L36.2131 9.554L35.549 13.3863C35.4838 13.7644 35.6407 14.1475 35.9543 14.3734C36.269 14.5981 36.6856 14.6275 37.0277 14.449L40.4945 12.6392L43.9715 14.449C44.1202 14.5267 44.2832 14.565 44.4451 14.565C44.6559 14.565 44.8667 14.4994 45.0449 14.3735C45.3587 14.1466 45.5154 13.7645 45.4502 13.3865L44.7873 9.55415L47.6023 6.83789C47.8804 6.57059 47.9801 6.16934 47.8599 5.80428Z" fill="#76824A"/>
<path d="M64.1551 5.80428C64.035 5.43938 63.7162 5.1741 63.3322 5.11872L59.4417 4.55907L57.7032 1.0816C57.359 0.394024 56.2214 0.394024 55.8771 1.0816L54.1387 4.55907L50.2575 5.11872C49.8745 5.1741 49.5557 5.44031 49.4356 5.80536C49.3154 6.16934 49.4153 6.56966 49.6932 6.83773L52.5082 9.554L51.8442 13.3863C51.779 13.7644 51.9359 14.1475 52.2495 14.3734C52.5642 14.5981 52.9807 14.6275 53.3229 14.449L56.7896 12.6392L60.2667 14.449C60.4154 14.5267 60.5784 14.565 60.7403 14.565C60.9511 14.565 61.1618 14.4994 61.3401 14.3735C61.6539 14.1466 61.8106 13.7645 61.7454 13.3865L61.0825 9.55415L63.8975 6.83789C64.1754 6.57059 64.2753 6.16934 64.1551 5.80428Z" fill="#76824A"/>
<path d="M80.4503 5.80428C80.329 5.43938 80.0114 5.1741 79.6273 5.11872L75.7369 4.55907L73.9984 1.0816C73.6542 0.394024 72.5165 0.394024 72.1723 1.0816L70.4339 4.55907L66.5526 5.11872C66.1697 5.1741 65.8509 5.44031 65.7308 5.80536C65.6106 6.16934 65.7104 6.56966 65.9884 6.83773L68.8034 9.554L68.1393 13.3863C68.0742 13.7644 68.2311 14.1475 68.5447 14.3734C68.7218 14.5004 68.9317 14.5649 69.1425 14.5649C69.3054 14.5649 69.4684 14.5265 69.619 14.4488L73.0859 12.639L76.5639 14.4488C76.9061 14.6294 77.3215 14.599 77.6364 14.3723C77.949 14.1464 78.1059 13.7644 78.0408 13.3862L77.3778 9.55384L80.1928 6.83758C80.4706 6.57059 80.5695 6.16934 80.4503 5.80428Z" fill="#76824A"/>
</svg>
