<svg width="30" height="30" viewBox="0 0 30 30" fill="none" xmlns="http://www.w3.org/2000/svg">
<rect x="0.5" y="0.5" width="29" height="29" rx="14.5" fill="#E8E6D4"/>
<rect x="0.5" y="0.5" width="29" height="29" rx="14.5" stroke="#76824A"/>
<path d="M9.27791 14.9281L12.0316 15.8633L18.5693 11.8665C18.6641 11.8086 18.7612 11.9373 18.6795 12.0125L13.7299 16.5683L13.5459 19.1188C13.5319 19.3129 13.7656 19.4209 13.9043 19.2845L15.4282 17.7859L18.2142 19.8949C18.5144 20.1223 18.9493 19.962 19.0303 19.5942L20.9701 10.7863C21.0808 10.2838 20.5884 9.8598 20.1079 10.0438L9.26389 14.1963C8.92372 14.3266 8.93299 14.811 9.27791 14.9281Z" fill="#76824A"/>
</svg>
