<svg xmlns="http://www.w3.org/2000/svg" width="14" height="15" fill="none"><path fill="#76824A" d="M.472 2.363h4.656a.47.47 0 0 0 .405-.234h.832a.465.465 0 0 0 .402.234v.239a.464.464 0 0 0-.387.348l-.117.466a.47.47 0 0 0 .453.58h.568a.47.47 0 0 0 .453-.58L7.62 2.95a.464.464 0 0 0-.387-.348v-.24a.467.467 0 0 0 .467-.466V.963a.467.467 0 0 0-.467-.467h-.466a.465.465 0 0 0-.402.233h-.832a.47.47 0 0 0-.405-.233H.472A.473.473 0 0 0 0 .968v.923a.472.472 0 0 0 .472.472Zm6.813 1.166h-.57l.117-.466h.336l.117.466ZM6.767.963h.466v.933h-.466V.963ZM5.6 1.196h.7v.467h-.7v-.467ZM.472.963l4.661.005v.923a.005.005 0 0 1-.005.005L.467 1.891.472.963Z"/><path fill="#76824A" d="M7 5.048c-1.511-1.597-3.175-1.504-4.254-.861a3.425 3.425 0 0 0-1.4 4.173c.193.465.436.907.726 1.32.354.474.618 1.01.782 1.578.047.249.071.5.072.754 0 .308.035.615.103.916.266 1.015.878 1.589 1.657 1.567 1.245-.03 1.563-1.277 1.797-2.188.134-.524.263-1.13.519-1.13.255 0 .385.606.518 1.13.234.911.55 2.16 1.797 2.188.79.019 1.39-.553 1.656-1.567.069-.3.103-.608.103-.916.001-.253.026-.505.073-.754.163-.569.428-1.104.782-1.579.289-.412.531-.854.723-1.32a3.451 3.451 0 0 0-.046-2.602.641.641 0 0 0 .079-.108l.156-.284c.125-.23.313-.417.542-.543l.285-.155a.632.632 0 0 0 0-1.11l-.285-.156a1.363 1.363 0 0 1-.542-.542l-.156-.285a.632.632 0 0 0-1.11 0l-.156.285a1.364 1.364 0 0 1-.541.542l-.286.156a.628.628 0 0 0-.255.265C9.188 3.566 7.992 4.004 7 5.048Zm3.82-1.08.284-.157c.308-.168.56-.42.728-.727l.155-.285a.166.166 0 0 1 .292 0l.155.285c.168.307.42.56.728.727l.285.156a.166.166 0 0 1 0 .291l-.285.156c-.308.168-.56.42-.728.727l-.155.285a.166.166 0 0 1-.292 0l-.155-.285a1.826 1.826 0 0 0-.728-.727l-.285-.156a.166.166 0 0 1 0-.29Zm-.525.326a.63.63 0 0 0 .3.373l.285.156c.229.125.417.313.542.542l.156.285a.614.614 0 0 0 .615.32 2.99 2.99 0 0 1 .023 2.225c-.181.434-.41.846-.68 1.23a5.334 5.334 0 0 0-.846 1.73 4.52 4.52 0 0 0-.084.84c0 .275-.029.548-.088.815-.121.463-.429 1.234-1.194 1.22-.828-.017-1.083-.774-1.355-1.838-.186-.728-.357-1.458-.943-1.483-.63-.027-.806.74-.998 1.483-.272 1.064-.528 1.818-1.355 1.838-.747.023-1.076-.756-1.194-1.22a3.738 3.738 0 0 1-.088-.815 4.528 4.528 0 0 0-.084-.838 5.34 5.34 0 0 0-.846-1.732 6.416 6.416 0 0 1-.679-1.229 2.958 2.958 0 0 1 1.203-3.608c.954-.569 2.457-.617 3.82.942.212.424.46 1.003 1.536 1.014a.233.233 0 1 0 0-.467c-.705 0-.894-.303-1.062-.64.904-.985 1.988-1.395 3.016-1.143Z"/></svg>