<svg xmlns="http://www.w3.org/2000/svg" width="30" height="31" fill="none"><path fill="#18383C" d="M1.014 4.496h9.977a1.007 1.007 0 0 0 .868-.5h1.783a.996.996 0 0 0 .86.5v.512a.995.995 0 0 0-.829.746l-.25 1a1.005 1.005 0 0 0 .97 1.242h1.22a1.005 1.005 0 0 0 .97-1.242l-.25-1a.995.995 0 0 0-.83-.746v-.512a1 1 0 0 0 1-1v-2a1 1 0 0 0-1-1h-1a.996.996 0 0 0-.861.5h-1.783a1.007 1.007 0 0 0-.868-.5H1.014A1.012 1.012 0 0 0 .003 1.508v1.977a1.012 1.012 0 0 0 1.011 1.011Zm14.6 2.5h-1.221l.25-1h.72l.251 1Zm-1.111-5.5h1v2h-1v-2Zm-2.5.5h1.5v1h-1.5v-1Zm-10.989-.5 9.989.012v1.977a.011.011 0 0 1-.004.008.011.011 0 0 1-.008.003l-9.988-.011.011-1.989Z"/><path fill="#18383C" d="M15.002 10.25C11.764 6.83 8.2 7.027 5.886 8.405a7.34 7.34 0 0 0-3 8.943c.414.997.935 1.945 1.556 2.827a10.53 10.53 0 0 1 1.676 3.384c.101.532.153 1.072.155 1.614 0 .66.075 1.32.22 1.963.57 2.175 1.88 3.406 3.55 3.36 2.67-.064 3.35-2.738 3.85-4.69.288-1.123.566-2.422 1.113-2.422s.825 1.3 1.111 2.422c.5 1.952 1.18 4.628 3.85 4.69 1.695.039 2.978-1.186 3.55-3.36a8.9 8.9 0 0 0 .22-1.962 8.824 8.824 0 0 1 .156-1.615 10.53 10.53 0 0 1 1.676-3.384 14.68 14.68 0 0 0 1.55-2.828c.695-1.8.66-3.802-.1-5.576.064-.07.121-.148.17-.231l.334-.61c.268-.49.67-.894 1.16-1.162l.612-.334a1.355 1.355 0 0 0 0-2.378l-.61-.334a2.92 2.92 0 0 1-1.162-1.162l-.334-.61a1.356 1.356 0 0 0-2.378 0l-.334.61c-.268.49-.671.893-1.161 1.161l-.611.334c-.235.131-.426.33-.547.57-2.468-.549-5.03.39-7.156 2.627Zm8.184-2.316.612-.334c.658-.36 1.199-.9 1.558-1.559l.334-.61a.355.355 0 0 1 .624 0l.334.61c.36.659.9 1.2 1.558 1.559l.611.334a.356.356 0 0 1 0 .624l-.611.334c-.658.36-1.199.9-1.558 1.558l-.334.61a.356.356 0 0 1-.624 0l-.334-.61c-.36-.658-.9-1.199-1.559-1.558l-.61-.334a.356.356 0 0 1 0-.624Zm-1.123.7c.1.341.332.629.644.8l.61.334c.49.268.894.671 1.162 1.161l.334.611a1.316 1.316 0 0 0 1.317.687 6.41 6.41 0 0 1 .05 4.767 13.737 13.737 0 0 1-1.458 2.634 11.434 11.434 0 0 0-1.813 3.71 9.66 9.66 0 0 0-.18 1.8 7.993 7.993 0 0 1-.188 1.745c-.26.993-.918 2.645-2.558 2.613-1.774-.035-2.322-1.658-2.903-3.937-.4-1.56-.766-3.125-2.023-3.18-1.35-.057-1.727 1.586-2.138 3.18-.581 2.279-1.13 3.895-2.904 3.937-1.6.05-2.305-1.618-2.557-2.613a8.008 8.008 0 0 1-.19-1.746 9.703 9.703 0 0 0-.179-1.797 11.443 11.443 0 0 0-1.813-3.71 13.749 13.749 0 0 1-1.455-2.634A6.339 6.339 0 0 1 6.4 9.266c2.045-1.22 5.266-1.324 8.186 2.017.454.908.984 2.15 3.29 2.172a.5.5 0 0 0 0-1c-1.509 0-1.915-.65-2.274-1.373 1.936-2.11 4.26-2.986 6.462-2.447v-.001Z"/></svg>