<svg width="46" height="45" viewBox="0 0 46 45" fill="none" xmlns="http://www.w3.org/2000/svg">
<rect x="0.862549" y="0.5" width="44" height="44" rx="22" fill="#E8E6D4"/>
<rect x="0.862549" y="0.5" width="44" height="44" rx="22" stroke="#76824A"/>
<path d="M22.8625 16.7861C19.0413 16.7861 15.5761 18.7903 13.019 22.0455C12.8104 22.3122 12.8104 22.6848 13.019 22.9514C15.5761 26.2106 19.0413 28.2147 22.8625 28.2147C26.6838 28.2147 30.149 26.2106 32.7061 22.9554C32.9147 22.6887 32.9147 22.3161 32.7061 22.0494C30.149 18.7903 26.6838 16.7861 22.8625 16.7861ZM23.1367 26.5243C20.6001 26.6773 18.5054 24.6732 18.6649 22.2376C18.7959 20.2296 20.4937 18.602 22.5884 18.4765C25.125 18.3235 27.2197 20.3277 27.0602 22.7632C26.9251 24.7673 25.2273 26.3949 23.1367 26.5243ZM23.0098 24.6653C21.6434 24.7477 20.5142 23.6692 20.6042 22.3592C20.6737 21.2768 21.5902 20.4022 22.7194 20.3316C24.0858 20.2492 25.215 21.3278 25.125 22.6377C25.0514 23.7241 24.1349 24.5987 23.0098 24.6653Z" fill="#76824A"/>
</svg>
