<svg width="21" height="13" viewBox="0 0 21 13" fill="none" xmlns="http://www.w3.org/2000/svg">
<path d="M10.8625 0.786133C7.04134 0.786133 3.57606 2.79025 1.01904 6.04547C0.810386 6.31217 0.810386 6.68475 1.01904 6.95144C3.57606 10.2106 7.04134 12.2147 10.8625 12.2147C14.6838 12.2147 18.149 10.2106 20.7061 6.95536C20.9147 6.68867 20.9147 6.31609 20.7061 6.04939C18.149 2.79025 14.6838 0.786133 10.8625 0.786133ZM11.1367 10.5243C8.6001 10.6773 6.50538 8.67318 6.66494 6.23765C6.79586 4.22961 8.49372 2.602 10.5884 2.47649C13.125 2.32354 15.2197 4.32766 15.0602 6.76319C14.9251 8.76731 13.2273 10.3949 11.1367 10.5243ZM11.0098 8.66534C9.64336 8.7477 8.51418 7.66916 8.60419 6.35923C8.67374 5.27677 9.59018 4.40217 10.7194 4.33158C12.0858 4.24922 13.215 5.32776 13.125 6.63769C13.0514 7.72407 12.1349 8.59866 11.0098 8.66534Z" fill="#76824A"/>
</svg>
