<svg width="31" height="31" viewBox="0 0 31 31" fill="none" xmlns="http://www.w3.org/2000/svg">
<rect x="0.362549" y="0.5" width="30" height="30" rx="15" fill="#76824A"/>
<path fill-rule="evenodd" clip-rule="evenodd" d="M20.4607 16.5868C20.9296 17.0446 21.4246 17.4753 21.8452 17.9793C22.0309 18.2033 22.2068 18.4344 22.3414 18.6943C22.5321 19.0638 22.3594 19.4704 22.0281 19.4925L19.9686 19.4915C19.4374 19.5356 19.0137 19.3218 18.6574 18.9586C18.3723 18.6682 18.1082 18.3591 17.8341 18.0589C17.7216 17.9361 17.604 17.8207 17.4635 17.7294C17.1823 17.5469 16.9383 17.6028 16.7776 17.896C16.614 18.1942 16.5769 18.5245 16.5608 18.8569C16.5387 19.3418 16.3922 19.4693 15.905 19.4915C14.864 19.5406 13.8759 19.3831 12.9581 18.8579C12.1489 18.3949 11.5214 17.7413 10.9752 17.0014C9.91185 15.5606 9.09749 13.9773 8.36558 12.3497C8.20084 11.983 8.32132 11.7862 8.72592 11.7792C9.39777 11.7662 10.0695 11.7671 10.7422 11.7783C11.0152 11.7823 11.196 11.9389 11.3014 12.1969C11.6649 13.0907 12.1097 13.941 12.668 14.7292C12.8167 14.9391 12.9683 15.1489 13.1842 15.2966C13.423 15.4601 13.6048 15.4059 13.7172 15.1399C13.7885 14.9712 13.8197 14.7895 13.8358 14.6088C13.889 13.9872 13.896 13.3667 13.8027 12.7473C13.7453 12.3607 13.5276 12.1105 13.1419 12.0373C12.945 12 12.9743 11.9268 13.0696 11.8144C13.2352 11.6206 13.3909 11.5 13.7012 11.5H16.0287C16.3951 11.5723 16.4765 11.7369 16.5267 12.1056L16.5287 14.691C16.5247 14.8337 16.6 15.2573 16.857 15.3517C17.0628 15.419 17.1984 15.2544 17.3219 15.1239C17.8791 14.5325 18.2769 13.8335 18.6322 13.1097C18.7899 12.7915 18.9255 12.4609 19.0569 12.1307C19.1542 11.8856 19.307 11.7651 19.583 11.7704L21.8231 11.7724C21.8895 11.7724 21.9567 11.7734 22.021 11.7844C22.3985 11.8487 22.502 12.0111 22.3854 12.3797C22.2017 12.958 21.8443 13.4399 21.4948 13.9241C21.1212 14.441 20.7217 14.9402 20.3512 15.4602C20.0109 15.935 20.0379 16.1744 20.4607 16.5868Z" fill="#E8E6D4"/>
</svg>
