<svg width="30" height="30" viewBox="0 0 30 30" fill="none" xmlns="http://www.w3.org/2000/svg">
<rect x="0.5" y="0.5" width="29" height="29" rx="14.5" fill="#E8E6D4"/>
<rect x="0.5" y="0.5" width="29" height="29" rx="14.5" stroke="#76824A"/>
<path fill-rule="evenodd" clip-rule="evenodd" d="M20.0982 16.0868C20.5671 16.5446 21.062 16.9753 21.4826 17.4793C21.6684 17.7033 21.8443 17.9344 21.9788 18.1943C22.1695 18.5638 21.9968 18.9704 21.6655 18.9925L19.6061 18.9915C19.0749 19.0356 18.6512 18.8218 18.2949 18.4586C18.0097 18.1682 17.7457 17.8591 17.4715 17.5589C17.3591 17.4361 17.2414 17.3207 17.1009 17.2294C16.8198 17.0469 16.5757 17.1028 16.4151 17.396C16.2514 17.6942 16.2143 18.0245 16.1983 18.3569C16.1762 18.8418 16.0296 18.9693 15.5425 18.9915C14.5014 19.0406 13.5134 18.8831 12.5956 18.3579C11.7864 17.8949 11.1589 17.2413 10.6127 16.5014C9.5493 15.0606 8.73494 13.4773 8.00304 11.8497C7.83829 11.483 7.95877 11.2862 8.36337 11.2792C9.03522 11.2662 9.70698 11.2671 10.3796 11.2783C10.6527 11.2823 10.8335 11.4389 10.9389 11.6969C11.3024 12.5907 11.7472 13.441 12.3055 14.2292C12.4541 14.4391 12.6057 14.6489 12.8216 14.7966C13.0604 14.9601 13.2423 14.9059 13.3546 14.6399C13.4259 14.4712 13.4571 14.2895 13.4732 14.1088C13.5264 13.4872 13.5335 12.8667 13.4401 12.2473C13.3828 11.8607 13.165 11.6105 12.7793 11.5373C12.5825 11.5 12.6118 11.4268 12.7071 11.3144C12.8726 11.1206 13.0283 11 13.3387 11H15.6662C16.0326 11.0723 16.114 11.2369 16.1641 11.6056L16.1661 14.191C16.1621 14.3337 16.2374 14.7573 16.4945 14.8517C16.7003 14.919 16.8359 14.7544 16.9593 14.6239C17.5166 14.0325 17.9143 13.3335 18.2696 12.6097C18.4273 12.2915 18.5629 11.9609 18.6943 11.6307C18.7917 11.3856 18.9444 11.2651 19.2205 11.2704L21.4605 11.2724C21.527 11.2724 21.5942 11.2734 21.6585 11.2844C22.036 11.3487 22.1394 11.5111 22.0228 11.8797C21.8391 12.458 21.4817 12.9399 21.1323 13.4241C20.7587 13.941 20.3591 14.4402 19.9887 14.9602C19.6483 15.435 19.6754 15.6744 20.0982 16.0868Z" fill="#76824A"/>
</svg>
