<svg width="20" height="21" viewBox="0 0 20 21" fill="none" xmlns="http://www.w3.org/2000/svg">
<g clip-path="url(#clip0_2862_39008)">
<g clip-path="url(#clip1_2862_39008)">
<g clip-path="url(#clip2_2862_39008)">
<path d="M9.00006 0.0566406C4.03754 0.0566406 5.80938e-05 4.09412 5.80938e-05 9.05664C5.80938e-05 10.6062 0.400362 12.1299 1.15949 13.4744L0.0145363 17.5596C-0.0230289 17.6939 0.0133624 17.8379 0.110406 17.9376C0.185145 18.0147 0.286884 18.0566 0.391362 18.0566C0.422667 18.0566 0.454362 18.0527 0.485275 18.0453L4.74893 16.9891C6.0508 17.688 7.51701 18.0566 9.00006 18.0566C13.9626 18.0566 18.0001 14.0191 18.0001 9.05664C18.0001 4.09412 13.9626 0.0566406 9.00006 0.0566406ZM13.5274 12.2324C13.3349 12.7654 12.4114 13.2518 11.9677 13.3171C11.5694 13.3754 11.0654 13.4005 10.5121 13.2267C10.1767 13.1211 9.74627 12.981 9.19493 12.7458C6.87723 11.7574 5.36367 9.45303 5.24784 9.30081C5.13241 9.1486 4.30441 8.0639 4.30441 6.94125C4.30441 5.8186 4.90114 5.26647 5.11323 5.03794C5.32532 4.80942 5.57536 4.75229 5.72954 4.75229C5.88371 4.75229 6.03749 4.75425 6.17249 4.76051C6.31454 4.76755 6.5051 4.7069 6.69254 5.15221C6.88506 5.60925 7.34719 6.7319 7.40432 6.84655C7.46223 6.96081 7.50058 7.09425 7.42388 7.24647C7.34719 7.39868 7.30884 7.49377 7.19301 7.62721C7.07719 7.76064 6.95041 7.9246 6.84632 8.02712C6.73049 8.14099 6.61036 8.26425 6.74497 8.49277C6.87958 8.72129 7.34327 9.46829 8.03041 10.0732C8.9128 10.8503 9.65745 11.0914 9.88832 11.2056C10.1192 11.3199 10.2542 11.3007 10.3888 11.1485C10.5234 10.9959 10.9664 10.4821 11.1201 10.254C11.2739 10.0259 11.4281 10.0634 11.6402 10.1397C11.8523 10.2156 12.9882 10.7674 13.2191 10.8816C13.45 10.9959 13.6041 11.053 13.6621 11.1481C13.72 11.2428 13.72 11.6999 13.5274 12.2324Z" fill="#F8FAFE"/>
</g>
</g>
</g>
<defs>
<clipPath id="clip0_2862_39008">
<rect width="20" height="20" fill="white" transform="translate(0 0.0566406)"/>
</clipPath>
<clipPath id="clip1_2862_39008">
<rect width="18" height="18" fill="white" transform="translate(0 0.0566406)"/>
</clipPath>
<clipPath id="clip2_2862_39008">
<rect width="18" height="18" fill="white" transform="translate(0 0.0566406)"/>
</clipPath>
</defs>
</svg>
