<svg width="149" height="46" viewBox="0 0 149 46" fill="none" xmlns="http://www.w3.org/2000/svg">
<g clip-path="url(#clip0_2862_38982)">
<path d="M20.8224 38.9747C20.1809 38.9747 19.6767 39.2025 19.3088 39.6575C18.942 40.1125 18.7576 40.7401 18.7576 41.541C18.7576 42.3795 18.9343 43.0138 19.2877 43.4438C19.6411 43.8738 20.153 44.0886 20.8224 44.0886C21.1125 44.0886 21.3929 44.0598 21.6637 44.0021C21.9346 43.9445 22.216 43.8705 22.5089 43.7801V44.7383C21.973 44.941 21.366 45.0424 20.687 45.0424C19.6872 45.0424 18.9199 44.7392 18.384 44.1328C17.8481 43.5269 17.5811 42.6601 17.5811 41.5319C17.5811 40.8212 17.7107 40.1995 17.971 39.6666C18.2303 39.1338 18.6068 38.7258 19.0985 38.4418C19.5912 38.1583 20.1684 38.0166 20.832 38.0166C21.5293 38.0166 22.1747 38.1632 22.7663 38.4563L22.3639 39.386C22.1334 39.2769 21.8904 39.1813 21.633 39.0987C21.3766 39.016 21.1058 38.9747 20.8224 38.9747Z" fill="#18383C"/>
<path d="M29.2092 44.9483H28.0932V39.0728H26.084V38.1143H31.2183V39.0728H29.2092L29.2092 44.9483Z" fill="#18383C"/>
<path d="M41.198 41.5226C41.198 42.6354 40.9205 43.4999 40.3644 44.1168C39.8083 44.7342 39.0217 45.0427 38.0027 45.0427C36.9722 45.0427 36.1799 44.7362 35.6277 44.124C35.0745 43.5119 34.7988 42.6417 34.7988 41.5135C34.7988 40.3853 35.0764 39.519 35.6325 38.9145C36.1885 38.3101 36.9818 38.0078 38.0124 38.0078C39.0275 38.0078 39.8122 38.3144 40.3673 38.9284C40.9214 39.5425 41.198 40.4074 41.198 41.5226ZM35.9849 41.5226C35.9849 42.364 36.1549 43.0021 36.494 43.4369C36.8339 43.8717 37.3362 44.0889 38.0028 44.0889C38.6664 44.0889 39.1668 43.8742 39.5048 43.4441C39.8429 43.0141 40.0119 42.3736 40.0119 41.5226C40.0119 40.6846 39.8448 40.0489 39.5096 39.6155C39.1744 39.1826 38.676 38.9659 38.0124 38.9659C37.343 38.9659 36.8378 39.1826 36.4968 39.6155C36.1559 40.0489 35.9849 40.6846 35.9849 41.5226Z" fill="#18383C"/>
<path d="M48.4884 44.9483L46.5081 39.241H46.4706C46.5234 40.0886 46.5494 40.8833 46.5494 41.6247V44.9483H45.5361V38.1143H47.1102L49.0071 43.5506H49.0349L50.9874 38.1143H52.5663V44.9483H51.4926V41.569C51.4926 41.2293 51.5003 40.7868 51.5176 40.2414C51.5348 39.696 51.5493 39.3655 51.5617 39.2501H51.5252L49.4738 44.9483L48.4884 44.9483Z" fill="#18383C"/>
<path d="M61.4722 44.9488L60.7893 43.0509H58.178L57.5105 44.9488H56.333L58.8887 38.0869H60.1026L62.6583 44.9488H61.4722ZM60.4954 42.088L59.8558 40.228C59.8087 40.1031 59.7444 39.907 59.6618 39.6389C59.5792 39.3708 59.5225 39.1743 59.4908 39.0498C59.4073 39.4333 59.2834 39.8522 59.122 40.3073L58.5055 42.088H60.4954Z" fill="#18383C"/>
<path d="M68.7902 44.9483H67.6742V39.0728H65.665V38.1143H70.7994V39.0728H68.7902L68.7902 44.9483Z" fill="#18383C"/>
<path d="M80.7791 41.5226C80.7791 42.6354 80.5015 43.4999 79.9454 44.1168C79.3894 44.7342 78.6028 45.0427 77.5838 45.0427C76.5533 45.0427 75.7609 44.7362 75.2087 44.124C74.6555 43.5119 74.3799 42.6417 74.3799 41.5135C74.3799 40.3853 74.6574 39.519 75.2135 38.9145C75.7696 38.3101 76.5629 38.0078 77.5934 38.0078C78.6086 38.0078 79.3932 38.3144 79.9483 38.9284C80.5025 39.5425 80.7791 40.4074 80.7791 41.5226ZM75.566 41.5226C75.566 42.364 75.736 43.0021 76.075 43.4369C76.415 43.8717 76.9173 44.0889 77.5838 44.0889C78.2474 44.0889 78.7478 43.8742 79.0859 43.4441C79.4239 43.0141 79.593 42.3736 79.593 41.5226C79.593 40.6846 79.4259 40.0489 79.0907 39.6155C78.7555 39.1826 78.257 38.9659 77.5934 38.9659C76.924 38.9659 76.4188 39.1826 76.0779 39.6155C75.7369 40.0489 75.566 40.6846 75.566 41.5226Z" fill="#18383C"/>
<path d="M90.2401 44.9483H89.1231V39.0728H87.1802C86.9344 41.0669 86.7365 42.4243 86.5886 43.1441C86.4407 43.8638 86.2333 44.365 85.9653 44.6471C85.6974 44.9291 85.342 45.0651 84.9002 45.056C84.6726 45.056 84.4565 45.017 84.251 44.9392V44.009C84.4286 44.0868 84.6015 44.1257 84.7696 44.1257C84.9934 44.1257 85.1691 43.9907 85.2949 43.7211C85.4208 43.4516 85.56 42.8558 85.7108 41.9332C85.8616 41.0112 86.0412 39.7378 86.2505 38.1143H90.2401V44.9483Z" fill="#18383C"/>
<path d="M100.977 41.5226C100.977 42.6354 100.7 43.4999 100.144 44.1168C99.5876 44.7342 98.801 45.0427 97.782 45.0427C96.7515 45.0427 95.9592 44.7362 95.407 44.124C94.8538 43.5119 94.5781 42.6417 94.5781 41.5135C94.5781 40.3853 94.8557 39.519 95.4118 38.9145C95.9678 38.3101 96.7611 38.0078 97.7916 38.0078C98.8068 38.0078 99.5915 38.3144 100.147 38.9284C100.701 39.5425 100.977 40.4074 100.977 41.5226ZM95.7642 41.5226C95.7642 42.364 95.9342 43.0021 96.2732 43.4369C96.6132 43.8717 97.1155 44.0889 97.782 44.0889C98.4457 44.0889 98.9461 43.8742 99.2841 43.4441C99.6222 43.0141 99.7912 42.3736 99.7912 41.5226C99.7912 40.6846 99.6241 40.0489 99.2889 39.6155C98.9537 39.1826 98.4553 38.9659 97.7916 38.9659C97.1222 38.9659 96.6171 39.1826 96.2761 39.6155C95.9352 40.0489 95.7642 40.6846 95.7642 41.5226Z" fill="#18383C"/>
<path d="M109.369 38.1143V39.0728H106.43V44.9483H105.314V38.1143H109.369Z" fill="#18383C"/>
<path d="M113.352 38.1143H114.374V41.667C114.374 42.038 114.365 42.4123 114.347 42.7909C114.327 43.1695 114.314 43.4261 114.304 43.5602H114.347L117.836 38.1143H119.139V44.9483H118.111V41.4239C118.111 40.8848 118.141 40.2304 118.201 39.4606H118.163L114.66 44.9483H113.352V38.1143Z" fill="#18383C"/>
<path d="M125.957 42.209L124.266 44.9483H122.99L124.915 41.952C124.043 41.6497 123.607 41.014 123.607 40.0449C123.607 39.4188 123.824 38.9402 124.256 38.6101C124.689 38.2795 125.326 38.1143 126.167 38.1143H128.218V44.9483H127.097V42.209L125.957 42.209ZM127.097 39.0493H126.21C125.739 39.0493 125.379 39.1329 125.128 39.2992C124.877 39.4659 124.752 39.7378 124.752 40.115C124.752 40.4826 124.874 40.7695 125.116 40.9751C125.359 41.1808 125.736 41.2836 126.247 41.2836H127.097L127.097 39.0493Z" fill="#18383C"/>
<path d="M5.46468 23.3017V17.7879L0.157849 8.38279C-0.140345 7.86209 -0.0425019 7.41113 0.67968 7.41113H3.43327C4.59807 7.41113 4.79842 7.50412 5.17116 8.2898L7.70112 13.6548L10.2823 8.2898C10.6504 7.50412 10.874 7.41113 11.9922 7.41113H14.6713C15.3934 7.41113 15.468 7.87606 15.1698 8.38279L9.88165 17.8157V23.3017C9.88165 24.0129 9.63466 24.2733 8.8892 24.2733H6.4338C5.68833 24.2733 5.46468 24.0129 5.46468 23.3017Z" fill="#C37546"/>
<path d="M15.5889 18.1221V13.5614C15.5889 9.54459 18.0955 7.05273 22.5777 7.05273C27.0599 7.05273 29.5664 9.54459 29.5664 13.5614V18.1221C29.5664 22.1389 27.0598 24.6308 22.5777 24.6308C18.0956 24.6308 15.5889 22.1297 15.5889 18.1221ZM25.1589 18.2663V13.4173C25.1589 11.7297 24.2643 10.851 22.5777 10.851C20.891 10.851 19.9964 11.7297 19.9964 13.4173V18.2663C19.9964 19.9492 20.891 20.8279 22.5777 20.8279C24.2643 20.8279 25.1589 19.9492 25.1589 18.2663Z" fill="#C37546"/>
<path d="M31.8916 18.2155V8.35954C31.8916 7.64819 32.1665 7.42969 32.8606 7.42969H35.3673C36.0616 7.42969 36.2992 7.66683 36.2992 8.35954V18.3597C36.2992 19.9496 37.0959 20.8283 38.7313 20.8283C40.3667 20.8283 41.2146 19.9496 41.2146 18.3597V8.35954C41.2146 7.64819 41.4383 7.42969 42.1465 7.42969H44.6298C45.3474 7.42969 45.6223 7.66683 45.6223 8.35954V18.2155C45.6223 22.1114 43.2414 24.6312 38.722 24.6312C34.2025 24.6312 31.8916 22.1301 31.8916 18.2155Z" fill="#C37546"/>
<path d="M48.3711 23.3017V8.38279C48.3711 7.67153 48.6413 7.41113 49.3635 7.41113H55.5416C59.1152 7.41113 61.4448 9.40563 61.4448 12.9901C61.4448 15.3424 60.4291 16.7465 58.7192 17.574C59.0091 17.9024 59.2507 18.2702 59.4367 18.6666L61.7197 23.2272C62.0179 23.8224 61.8921 24.2966 61.1234 24.2966H58.7052C57.5171 24.2966 57.1677 24.0594 56.8415 23.2784L55.2434 19.8055C54.7775 18.7827 54.4746 18.4109 53.5055 18.4109H52.788V23.3017C52.788 24.0129 52.5364 24.2733 51.7956 24.2733H49.3868C48.6413 24.2733 48.3711 24.0129 48.3711 23.3017ZM55.2434 14.7985C56.3617 14.7985 57.0279 14.1337 57.0279 12.9668C57.0482 12.7289 57.0158 12.4894 56.9329 12.2654C56.85 12.0415 56.7189 11.8384 56.5486 11.6707C56.3783 11.5029 56.173 11.3747 55.9474 11.2949C55.7219 11.2153 55.4816 11.186 55.2434 11.2095H52.788V14.7985L55.2434 14.7985Z" fill="#C37546"/>
<path d="M102.203 23.3017V8.3828C102.203 7.6483 102.473 7.41114 103.172 7.41114H105.427C106.224 7.41114 106.494 7.52738 106.769 8.14574L110.44 16.1514L114.168 8.16898C114.466 7.50412 114.689 7.41113 115.43 7.41113H117.816C118.557 7.41113 118.78 7.64828 118.78 8.3828V23.3017C118.78 24.0362 118.557 24.2733 117.816 24.2733H115.486C114.741 24.2733 114.494 24.0362 114.494 23.3017V18.8757C114.417 16.9022 114.695 14.9309 115.314 13.0551H115.09C114.649 14.4692 114.126 15.8569 113.525 17.2113L112.286 20.038C112.216 20.266 112.067 20.4616 111.865 20.5894C111.663 20.7173 111.423 20.7691 111.186 20.7354H109.648C109.414 20.7703 109.174 20.7201 108.973 20.5939C108.772 20.4677 108.623 20.2737 108.554 20.0473L107.29 17.2207C106.698 15.8739 106.207 14.4846 105.823 13.0644H105.6C106.146 14.9633 106.407 16.9328 106.373 18.9083V23.3017C106.373 24.0362 106.149 24.2733 105.442 24.2733H103.186C102.473 24.2733 102.203 24.0362 102.203 23.3017Z" fill="#18383C"/>
<path d="M121.656 23.3017V8.38279C121.656 7.67153 121.931 7.41113 122.648 7.41113H132.102C132.847 7.41113 133.094 7.67152 133.094 8.38279V10.2099C133.094 10.9491 132.847 11.2095 132.102 11.2095H126.073V13.8455H130.863C131.608 13.8455 131.855 14.1058 131.855 14.8217V16.6488C131.855 17.388 131.608 17.6484 130.863 17.6484H126.073V20.475H132.302C133.048 20.475 133.294 20.7121 133.294 21.4467V23.3063C133.294 24.0176 133.048 24.2779 132.302 24.2779H122.639C121.931 24.2733 121.656 24.0129 121.656 23.3017Z" fill="#18383C"/>
<path d="M135.479 23.3017V8.38279C135.479 7.67153 135.75 7.41113 136.444 7.41113H141.979C146.494 7.41113 149 9.90308 149 13.9198V17.7646C149 21.7814 146.494 24.2733 141.979 24.2733H136.444C135.75 24.2733 135.479 24.0129 135.479 23.3017ZM141.807 20.475C143.838 20.475 144.602 19.5452 144.602 17.7414V13.9431C144.602 12.1346 143.856 11.2095 141.807 11.2095H139.878V20.475H141.807Z" fill="#18383C"/>
<path d="M93.8778 7.77427C93.8822 8.04585 93.8778 8.31963 93.8655 8.59792C93.8644 8.63367 93.8621 8.66943 93.861 8.70518C93.8566 8.80577 93.851 8.90634 93.8443 9.00692C93.8409 9.0505 93.8387 9.0952 93.8353 9.13879C93.8275 9.23827 93.8197 9.33883 93.8107 9.43829C93.8074 9.47853 93.8041 9.51765 93.8007 9.55788C93.7884 9.68752 93.775 9.81826 93.7605 9.94902C93.7538 10.0082 93.746 10.0686 93.7382 10.129C93.7292 10.2027 93.7203 10.2765 93.7114 10.3513C93.7013 10.4251 93.6913 10.5 93.6812 10.5749C93.6734 10.6308 93.6644 10.6866 93.6566 10.7425C93.6488 10.7961 93.6421 10.8486 93.6343 10.9012C93.555 11.7215 93.459 12.5675 93.345 13.4257C92.2483 21.756 89.6024 31.292 86.7722 31.292H86.741C86.7186 31.2942 86.6963 31.2942 86.6751 31.2942C86.6617 31.2942 86.6494 31.2931 86.6371 31.292C86.6136 31.2909 86.5902 31.2886 86.5667 31.2853C86.5611 31.2842 86.5545 31.2842 86.5489 31.2831C86.5455 31.2831 86.541 31.2808 86.5377 31.2808C86.5086 31.2752 86.4796 31.2685 86.4517 31.2596C86.4439 31.2573 86.436 31.2562 86.4282 31.254C86.3936 31.2428 86.359 31.2294 86.3244 31.2126C86.3199 31.2104 86.3154 31.207 86.3099 31.2048C86.2819 31.1903 86.2529 31.1746 86.225 31.1568C86.2127 31.1501 86.2015 31.1422 86.1903 31.1344C86.1691 31.1188 86.1479 31.1031 86.1267 31.0864C86.1144 31.0774 86.1021 31.0674 86.0898 31.0562C86.0697 31.0383 86.0485 31.0193 86.0284 30.9992C86.0173 30.988 86.0061 30.978 85.996 30.9657C85.9703 30.9388 85.9447 30.9098 85.919 30.8785C85.9145 30.8729 85.91 30.8673 85.9045 30.8617C85.8754 30.8249 85.8464 30.7846 85.8185 30.7422C85.8095 30.7287 85.8006 30.7142 85.7917 30.7008C85.7716 30.6706 85.7526 30.6393 85.7336 30.6058C85.7291 30.598 85.7246 30.5913 85.7202 30.5835C85.7157 30.5756 85.7124 30.5678 85.7079 30.5589C85.6498 30.4538 85.594 30.3387 85.5415 30.2102C85.2857 29.5788 85.193 28.8915 85.2455 28.2109C85.2701 27.8846 85.2835 27.5482 85.2835 27.2073C85.2835 23.4356 83.6919 20.3657 81.7061 20.2461C79.7203 20.3657 78.1288 23.4356 78.1288 27.2073C78.1288 27.5482 78.1422 27.8846 78.1668 28.2109C78.2193 28.8915 78.1266 29.5788 77.8708 30.2102C77.8183 30.3387 77.7625 30.4538 77.7044 30.5589C77.6999 30.5678 77.6966 30.5756 77.6921 30.5835C77.6876 30.5913 77.6832 30.598 77.6787 30.6058C77.6597 30.6393 77.6407 30.6706 77.6206 30.7008C77.6117 30.7142 77.6027 30.7287 77.5938 30.7422C77.5659 30.7846 77.5369 30.8249 77.5078 30.8617C77.5022 30.8673 77.4978 30.8729 77.4933 30.8785C77.4676 30.9098 77.4419 30.9388 77.4162 30.9657C77.4062 30.978 77.395 30.988 77.3838 30.9992C77.3637 31.0193 77.3425 31.0383 77.3224 31.0562C77.3101 31.0674 77.2979 31.0774 77.2856 31.0864C77.2643 31.1031 77.2431 31.1188 77.2219 31.1344C77.2107 31.1422 77.1996 31.1501 77.1873 31.1568C77.1593 31.1746 77.1303 31.1903 77.1024 31.2048C77.0968 31.207 77.0923 31.2104 77.0879 31.2126C77.0533 31.2294 77.0186 31.2428 76.984 31.254C76.9762 31.2562 76.9684 31.2573 76.9606 31.2596C76.9326 31.2685 76.9036 31.2752 76.8746 31.2808C76.8712 31.2808 76.8667 31.2831 76.8634 31.2831C76.8578 31.2842 76.8511 31.2842 76.8455 31.2853C76.8221 31.2886 76.7986 31.2909 76.7752 31.292C76.7629 31.2931 76.7506 31.2942 76.7372 31.2942C76.716 31.2942 76.6936 31.2942 76.6713 31.292H76.64C76.2658 31.292 75.895 31.1255 75.5298 30.8159C73.1196 28.7764 70.9875 20.5322 70.046 13.2626C69.941 12.4602 69.8516 11.6701 69.7779 10.9012C69.7701 10.8487 69.7634 10.7961 69.7556 10.7425C69.7478 10.6866 69.7388 10.6307 69.731 10.5749C69.721 10.5 69.7109 10.4251 69.7009 10.3513C69.6919 10.2765 69.683 10.2027 69.6741 10.129C69.6663 10.0686 69.6584 10.0082 69.6517 9.94902C69.6372 9.81826 69.6238 9.68752 69.6115 9.55788C69.6082 9.51765 69.6048 9.47853 69.6015 9.43829C69.5925 9.33883 69.5847 9.23827 69.5769 9.13879C69.5735 9.0952 69.5713 9.0505 69.568 9.00692C69.5613 8.90633 69.5557 8.80576 69.5512 8.70518C69.5501 8.66943 69.5479 8.63367 69.5467 8.59792C69.5345 8.31963 69.53 8.04584 69.5345 7.77427C69.5345 7.75638 69.5345 7.73963 69.5356 7.72288C69.5378 7.60217 69.5412 7.48258 69.5467 7.36302C69.5467 7.35185 69.5467 7.33955 69.5479 7.32838C69.5367 6.97635 69.5322 6.63438 69.5322 6.30469C69.5322 3.32643 71.2935 0.250936 75.0071 0.250936H75.0284C75.6806 0.151458 76.4044 0.222989 77.2063 0.348161C78.3276 0.408503 79.4802 0.830947 80.3413 1.2109C81.0639 1.53051 81.5822 1.81997 81.7061 1.8412C81.9798 1.79313 84.1465 0.458778 86.206 0.348161C87.0079 0.222989 87.7317 0.151458 88.3839 0.250936H88.4052C92.1188 0.250936 93.8801 3.32643 93.8801 6.30469C93.8801 6.63438 93.8756 6.97635 93.8644 7.32838C93.8655 7.33955 93.8655 7.35185 93.8655 7.36302C93.8711 7.48259 93.8745 7.60217 93.8767 7.72288C93.8778 7.73963 93.8778 7.75638 93.8778 7.77427Z" fill="#18383C" fill-opacity="0.8"/>
<path d="M93.8767 7.72257C93.8761 7.70494 93.8655 7.55516 93.8655 7.36271C93.8655 7.35154 93.8655 7.33924 93.8644 7.32807C93.8755 6.97605 93.88 6.63407 93.88 6.30438C93.88 3.32612 92.1187 0.250629 88.4051 0.250629H88.3839C87.7316 0.151152 87.0079 0.222681 86.206 0.347853C84.1465 0.45848 81.9797 1.79284 81.7061 1.84089C81.3843 1.68917 80.9141 1.46968 80.3413 1.21059C79.8574 0.991728 79.449 0.811794 79.3606 0.773642C78.2555 0.296012 75.467 -0.377089 73.3295 0.438366C72.8346 0.627196 72.2097 0.952454 71.8776 1.22065C71.5831 1.45839 71.045 1.95935 71.045 1.95935C71.2184 1.85647 75.2717 -0.492852 77.1269 1.10889C77.7054 1.60838 77.854 2.30546 77.9087 2.56172C78.7309 6.41741 71.0552 12.4775 70.0459 13.2623C70.9874 20.5319 73.1195 28.7761 75.5298 30.8156C75.895 31.1252 76.2658 31.2917 76.6399 31.2917H76.6712C76.6935 31.2939 76.7159 31.2939 76.7371 31.2939C76.7505 31.2939 76.7628 31.2928 76.7751 31.2917C76.7985 31.2906 76.822 31.2883 76.8454 31.285C76.851 31.2839 76.8577 31.2839 76.8633 31.2827C76.8667 31.2827 76.8711 31.2805 76.8745 31.2805C76.9035 31.2749 76.9326 31.2682 76.9605 31.2593C76.9683 31.257 76.9761 31.2559 76.9839 31.2537C77.0186 31.2425 77.0532 31.2291 77.0878 31.2123C77.0923 31.2101 77.0967 31.2067 77.1023 31.2045C77.1303 31.19 77.1593 31.1743 77.1872 31.1565C77.1995 31.1498 77.2107 31.1419 77.2218 31.1341C77.243 31.1185 77.2643 31.1028 77.2855 31.0861C77.2978 31.0771 77.31 31.0671 77.3223 31.0559C77.3424 31.038 77.3637 31.019 77.3838 30.9989C77.3949 30.9877 77.4061 30.9777 77.4162 30.9654C77.4418 30.9385 77.4675 30.9095 77.4932 30.8782C77.4977 30.8726 77.5022 30.867 77.5077 30.8614C77.5368 30.8246 77.5658 30.7843 77.5937 30.7418C77.6027 30.7284 77.6116 30.7139 77.6205 30.7005C77.6406 30.6703 77.6596 30.639 77.6786 30.6055C77.6831 30.5977 77.6876 30.591 77.692 30.5832C77.6965 30.5753 77.6998 30.5675 77.7043 30.5586C77.7624 30.4535 77.8182 30.3384 77.8707 30.2099C78.1265 29.5785 78.2192 28.8912 78.1667 28.2106C78.1421 27.8843 78.1287 27.5479 78.1287 27.207C78.1287 23.4353 79.7203 20.3654 81.7061 20.2458C83.6919 20.3654 85.2834 23.4353 85.2834 27.207C85.2834 27.5479 85.27 27.8843 85.2454 28.2106C85.1929 28.8912 85.2856 29.5785 85.5414 30.2099C85.5939 30.3384 85.6498 30.4535 85.7078 30.5586C85.7123 30.5675 85.7156 30.5753 85.7201 30.5832C85.7246 30.591 85.729 30.5977 85.7335 30.6055C85.7525 30.639 85.7715 30.6703 85.7916 30.7005C85.8005 30.7139 85.8095 30.7284 85.8184 30.7418C85.8463 30.7843 85.8754 30.8245 85.9044 30.8614C85.91 30.867 85.9144 30.8726 85.9189 30.8782C85.9446 30.9095 85.9703 30.9385 85.996 30.9654C86.006 30.9777 86.0172 30.9877 86.0283 30.9989C86.0484 31.019 86.0697 31.038 86.0898 31.0559C86.102 31.0671 86.1143 31.0771 86.1266 31.0861C86.1478 31.1028 86.1691 31.1185 86.1903 31.1341C86.2015 31.1419 86.2126 31.1498 86.2249 31.1565C86.2528 31.1743 86.2819 31.19 86.3098 31.2045C86.3154 31.2067 86.3198 31.2101 86.3243 31.2123C86.3589 31.2291 86.3936 31.2425 86.4282 31.2537C86.436 31.2559 86.4438 31.257 86.4516 31.2593C86.4795 31.2682 86.5086 31.2749 86.5376 31.2805C86.541 31.2805 86.5454 31.2827 86.5488 31.2827C86.5544 31.2839 86.5611 31.2839 86.5666 31.285C86.5901 31.2883 86.6136 31.2906 86.637 31.2917C86.6493 31.2928 86.6616 31.2939 86.675 31.2939C86.6962 31.2939 86.7185 31.2939 86.7409 31.2917H86.7722C89.6023 31.2917 92.2482 21.7556 93.345 13.4254C93.4589 12.5672 93.5549 11.7211 93.6342 10.9009C93.6421 10.8484 93.6487 10.7958 93.6566 10.7422C93.6644 10.6863 93.6733 10.6304 93.6811 10.5745C93.6912 10.4997 93.7012 10.4248 93.7113 10.351C93.7202 10.2762 93.7292 10.2024 93.7381 10.1286C93.7459 10.0683 93.7537 10.0079 93.7604 9.94871C93.7749 9.81795 93.7884 9.68722 93.8006 9.55757C93.804 9.51734 93.8073 9.47823 93.8107 9.43798C93.8196 9.33852 93.8275 9.23796 93.8353 9.13848C93.8353 9.13848 93.8396 9.07939 93.8442 9.00661C93.8624 8.71964 93.8863 8.05404 93.8767 7.72257Z" fill="#18383C"/>
<path d="M85.2842 27.2071C85.2842 23.4353 83.6926 20.3654 81.7068 20.2458C79.721 20.3654 78.1294 23.4353 78.1294 27.2071C78.1294 27.5479 78.1428 27.8843 78.1674 28.2106C78.2199 28.8912 78.1272 29.5785 77.8714 30.2099C77.819 30.3385 77.7631 30.4536 77.705 30.5586C77.7006 30.5675 77.6972 30.5754 77.6927 30.5832C77.6883 30.591 77.6838 30.5977 77.6794 30.6055C77.6604 30.6391 77.6414 30.6703 77.6213 30.7005C77.6123 30.7139 77.6034 30.7285 77.5945 30.7419C77.5665 30.7843 77.5375 30.8246 77.5085 30.8615C77.5029 30.8671 77.4984 30.8726 77.494 30.8782C77.4682 30.9095 77.4426 30.9386 77.4169 30.9654C77.4068 30.9777 77.3957 30.9877 77.3845 30.9989C77.3644 31.019 77.3432 31.038 77.3231 31.0559C77.3108 31.0671 77.2985 31.0772 77.2862 31.0861C77.265 31.1029 77.2438 31.1185 77.2225 31.1341C77.2114 31.142 77.2002 31.1498 77.1879 31.1565C77.16 31.1744 77.131 31.19 77.1031 31.2045C77.0975 31.2068 77.093 31.2101 77.0885 31.2124C77.0539 31.2291 77.0193 31.2426 76.9846 31.2537C76.9768 31.2559 76.969 31.2571 76.9612 31.2593C76.9333 31.2683 76.9042 31.2749 76.8752 31.2805C76.8719 31.2805 76.8674 31.2828 76.864 31.2828C76.8585 31.2839 76.8517 31.2839 76.8462 31.285C76.8227 31.2884 76.7993 31.2906 76.7758 31.2917C76.7635 31.2928 76.7512 31.294 76.7378 31.294C76.7166 31.294 76.6943 31.2939 76.6719 31.2917H76.6406C76.2665 31.2917 75.8957 31.1252 75.5305 30.8156C75.3741 28.7314 75.5807 26.512 76.2017 24.2813C78.46 16.1657 85.3489 10.9959 91.5889 12.7337C92.2043 12.9058 92.7906 13.1383 93.3457 13.4255C92.249 21.7557 89.6031 31.2917 86.7729 31.2917H86.7417C86.7193 31.2939 86.697 31.294 86.6758 31.294C86.6624 31.294 86.6501 31.2928 86.6378 31.2917C86.6143 31.2906 86.5909 31.2884 86.5674 31.285C86.5618 31.2839 86.5552 31.2839 86.5496 31.2828C86.5462 31.2828 86.5417 31.2805 86.5384 31.2805C86.5093 31.2749 86.4803 31.2683 86.4524 31.2593C86.4446 31.2571 86.4367 31.256 86.4289 31.2537C86.3943 31.2426 86.3597 31.2291 86.3251 31.2124C86.3206 31.2101 86.3161 31.2068 86.3106 31.2045C86.2826 31.19 86.2536 31.1744 86.2257 31.1565C86.2134 31.1498 86.2022 31.142 86.191 31.1341C86.1698 31.1185 86.1486 31.1028 86.1274 31.0861C86.1151 31.0772 86.1028 31.0671 86.0906 31.0559C86.0704 31.038 86.0492 31.019 86.0291 30.9989C86.018 30.9877 86.0068 30.9777 85.9967 30.9654C85.971 30.9386 85.9454 30.9095 85.9197 30.8782C85.9152 30.8726 85.9107 30.8671 85.9052 30.8615C85.8761 30.8246 85.8471 30.7844 85.8192 30.7419C85.8102 30.7285 85.8013 30.7139 85.7924 30.7005C85.7723 30.6703 85.7533 30.6391 85.7343 30.6055C85.7298 30.5977 85.7253 30.591 85.7209 30.5832C85.7164 30.5754 85.7131 30.5675 85.7086 30.5586C85.6505 30.4536 85.5947 30.3385 85.5422 30.2099C85.2864 29.5785 85.1937 28.8912 85.2462 28.2106C85.2708 27.8843 85.2842 27.5479 85.2842 27.2071Z" fill="#84A8AC" fill-opacity="0.2"/>
<path d="M87.8858 1.63086L89.1592 3.96052L91.4875 5.23467L89.1592 6.50881L87.8858 8.83848L86.6124 6.50881L84.2842 5.23467L86.6124 3.96052L87.8858 1.63086Z" fill="#18383C"/>
</g>
<defs>
<clipPath id="clip0_2862_38982">
<rect width="149" height="45" fill="white" transform="translate(0 0.0566406)"/>
</clipPath>
</defs>
</svg>
