<svg width="164" height="47" viewBox="0 0 164 47" fill="none" xmlns="http://www.w3.org/2000/svg">
<path d="M5.55661 23.3564V17.8165L0.158197 8.35909C-0.141715 7.83478 -0.0417445 7.37971 0.688041 7.37971H3.48722C4.66687 7.37971 4.87681 7.46874 5.2567 8.26016L7.82594 13.6517L10.4452 8.26016C10.8151 7.46874 11.045 7.37971 12.1847 7.37971H14.9039C15.6336 7.37971 15.7136 7.84467 15.4137 8.35909L10.0353 17.8462V23.3564C10.0353 24.0687 9.78537 24.3358 9.02559 24.3358H6.52632C5.76655 24.3358 5.53661 24.0786 5.53661 23.3564H5.55661Z" fill="#E8E6D4"/>
<path d="M15.8436 18.1529V13.5725C15.8436 9.53632 18.3928 7.03347 22.9515 7.03347C27.5101 7.03347 30.0594 9.53632 30.0594 13.5725V18.1529C30.0594 22.1891 27.5101 24.6919 22.9515 24.6919C18.3928 24.6919 15.8436 22.1792 15.8436 18.1529ZM25.5707 18.2914V13.4143C25.5707 11.7226 24.661 10.8323 22.9515 10.8323C21.242 10.8323 20.3323 11.7127 20.3323 13.4143V18.2914C20.3323 19.983 21.242 20.8635 22.9515 20.8635C24.661 20.8635 25.5707 19.983 25.5707 18.2914Z" fill="#E8E6D4"/>
<path d="M32.4187 18.2419V8.32941C32.4187 7.61714 32.6986 7.3995 33.4084 7.3995H35.9577C36.6675 7.3995 36.9074 7.63692 36.9074 8.32941V18.3804C36.9074 19.983 37.7171 20.8635 39.3767 20.8635C41.0362 20.8635 41.9059 19.983 41.9059 18.3804V8.32941C41.9059 7.61714 42.1358 7.3995 42.8556 7.3995H45.3849C46.1147 7.3995 46.3946 7.63692 46.3946 8.32941V18.2419C46.3946 22.1594 43.9753 24.6919 39.3767 24.6919C34.778 24.6919 32.4287 22.1792 32.4287 18.2419H32.4187Z" fill="#E8E6D4"/>
<path d="M49.1638 23.3564V8.35909C49.1638 7.64681 49.4337 7.37971 50.1735 7.37971H56.4516C60.0806 7.37971 62.4499 9.38793 62.4499 12.9889C62.4499 15.3532 61.4202 16.7679 59.6807 17.5989C59.9706 17.9253 60.2205 18.3013 60.4105 18.697L62.7298 23.2773C63.0297 23.8709 62.9097 24.3556 62.12 24.3556H59.6607C58.451 24.3556 58.1011 24.1182 57.7612 23.3366L56.1417 19.8445C55.6719 18.8157 55.362 18.4398 54.3722 18.4398H53.6425V23.3564C53.6425 24.0687 53.3825 24.3358 52.6328 24.3358H50.1835C49.4237 24.3358 49.1538 24.0786 49.1538 23.3564H49.1638ZM56.1517 14.8091C57.2914 14.8091 57.9612 14.1364 57.9612 12.9691C57.9812 12.7317 57.9512 12.4843 57.8612 12.2667C57.7812 12.0392 57.6413 11.8413 57.4713 11.6731C57.3014 11.505 57.0914 11.3764 56.8615 11.2972C56.6316 11.2181 56.3917 11.1884 56.1417 11.2082H53.6425V14.819H56.1417L56.1517 14.8091Z" fill="#E8E6D4"/>
<path d="M112.125 7.47864C114.375 7.47864 116.114 8.04252 117.334 9.17029C118.563 10.2981 119.173 11.8611 119.173 13.8495V17.9253C119.173 19.9138 118.563 21.4669 117.334 22.6046C116.104 23.7422 114.365 24.2962 112.125 24.2962H106.527C106.157 24.2962 105.907 24.227 105.757 24.0786C105.607 23.9302 105.537 23.6829 105.537 23.3169V8.45802C105.537 8.09199 105.607 7.84467 105.757 7.69628C105.907 7.54789 106.157 7.47864 106.527 7.47864H112.125ZM115.304 13.8495C115.304 11.9402 114.235 10.9905 112.095 10.9905H109.436V20.7645H112.095C114.235 20.7645 115.304 19.8148 115.304 17.9253V13.8495Z" fill="#E8E6D4"/>
<path d="M132.069 7.47864C132.439 7.47864 132.689 7.54789 132.839 7.69628C132.989 7.84467 133.059 8.09199 133.059 8.45802V10.0408C133.059 10.4069 132.989 10.6542 132.839 10.7828C132.699 10.9213 132.439 10.9807 132.069 10.9807H125.371V14.0375H130.87C131.24 14.0375 131.49 14.1068 131.64 14.2354C131.779 14.3739 131.859 14.6212 131.859 14.9773V16.5601C131.859 16.9262 131.789 17.1735 131.64 17.3219C131.49 17.4703 131.24 17.5395 130.87 17.5395H125.371V20.7547H132.309C132.659 20.7547 132.909 20.8338 133.059 20.9822C133.209 21.1306 133.289 21.3779 133.289 21.7241V23.307C133.289 23.673 133.219 23.9203 133.069 24.0687C132.919 24.2171 132.669 24.2863 132.299 24.2863H122.442C122.072 24.2863 121.822 24.2171 121.672 24.0687C121.522 23.9203 121.453 23.673 121.453 23.307V8.44812C121.453 8.08209 121.522 7.83478 121.672 7.68638C121.822 7.53799 122.072 7.46874 122.442 7.46874H132.059L132.069 7.47864Z" fill="#E8E6D4"/>
<path d="M145.915 18.6772C145.405 17.1141 145.345 16.0259 145.345 14.1068V8.44812C145.345 8.08209 145.415 7.83478 145.565 7.68638C145.715 7.53799 145.965 7.46874 146.335 7.46874H148.105C148.475 7.46874 148.724 7.53799 148.854 7.68638C148.984 7.83478 149.054 8.08209 149.054 8.44812V23.307C149.054 23.673 148.984 23.9203 148.854 24.0687C148.724 24.2171 148.465 24.2863 148.105 24.2863H146.165C145.715 24.2863 145.395 24.138 145.206 23.8412L140.517 16.7877C139.687 15.561 139.017 14.0771 138.508 12.3656H138.338C138.787 14.4926 139.007 16.2634 139.007 17.6681V23.3268C139.007 23.6928 138.937 23.9401 138.797 24.0885C138.657 24.2369 138.398 24.3061 138.028 24.3061H136.258C135.888 24.3061 135.638 24.2369 135.488 24.0885C135.338 23.9401 135.268 23.6928 135.268 23.3268V8.46791C135.268 8.10188 135.338 7.85456 135.488 7.70617C135.638 7.55778 135.888 7.48853 136.258 7.48853H138.248C138.667 7.48853 138.977 7.63692 139.177 7.9337L143.956 15.1059C144.246 15.5313 144.506 15.9963 144.756 16.4909C145.006 16.9855 145.186 17.3911 145.315 17.6978C145.445 18.0045 145.565 18.3013 145.695 18.6772" fill="#E8E6D4"/>
<path d="M163.02 7.47864C163.39 7.47864 163.64 7.54789 163.79 7.69628C163.94 7.84467 164 8.09199 164 8.45802V10.0408C164 10.4069 163.93 10.6542 163.79 10.7828C163.65 10.9213 163.39 10.9807 163.02 10.9807H159.291V23.307C159.291 23.673 159.221 23.9203 159.071 24.0687C158.921 24.2171 158.672 24.2863 158.312 24.2863H156.372C156.002 24.2863 155.752 24.2171 155.622 24.0687C155.492 23.9203 155.423 23.673 155.423 23.307V10.9807H151.664C151.294 10.9807 151.044 10.9114 150.894 10.7828C150.754 10.6443 150.674 10.397 150.674 10.0408V8.45802C150.674 8.09199 150.744 7.84467 150.894 7.69628C151.044 7.54789 151.294 7.47864 151.664 7.47864H163.02Z" fill="#E8E6D4"/>
<path d="M95.4202 7.75563C95.4202 8.03263 95.4202 8.29973 95.4102 8.58662C95.4102 8.62619 95.4102 8.65587 95.4102 8.69544C95.4102 8.79437 95.4002 8.89329 95.3902 9.00211C95.3902 9.04169 95.3902 9.09115 95.3902 9.13072C95.3902 9.22965 95.3702 9.32857 95.3702 9.4275C95.3702 9.46707 95.3702 9.50664 95.3602 9.54621C95.3502 9.67482 95.3302 9.80342 95.3202 9.94192C95.3202 10.0013 95.3102 10.0606 95.3002 10.12C95.3002 10.1892 95.2802 10.2684 95.2702 10.3475C95.2602 10.4168 95.2502 10.4959 95.2402 10.5751C95.2402 10.6344 95.2202 10.6839 95.2202 10.7432C95.2202 10.7927 95.2102 10.852 95.2002 10.9015C95.1203 11.7226 95.0203 12.5734 94.9103 13.434C93.8007 21.8033 91.1114 31.3893 88.2323 31.3893H88.2023C88.2023 31.3893 88.1523 31.3893 88.1323 31.3893C88.1223 31.3893 88.1023 31.3893 88.0923 31.3893C88.0723 31.3893 88.0423 31.3893 88.0224 31.3893C88.0224 31.3893 88.0124 31.3893 88.0024 31.3893C88.0024 31.3893 88.0024 31.3893 87.9924 31.3893C87.9624 31.3893 87.9324 31.3794 87.9024 31.3695H87.8824C87.8424 31.3596 87.8124 31.3497 87.7724 31.33C87.7724 31.33 87.7724 31.33 87.7624 31.33C87.7324 31.3201 87.7024 31.3003 87.6725 31.2805C87.6625 31.2805 87.6525 31.2706 87.6325 31.2607C87.6125 31.2409 87.5925 31.231 87.5725 31.2112C87.5625 31.2112 87.5525 31.1915 87.5325 31.1816C87.5125 31.1618 87.4925 31.142 87.4725 31.1222C87.4625 31.1123 87.4525 31.1024 87.4425 31.0925C87.4125 31.0628 87.3925 31.0332 87.3625 31.0035C87.3625 31.0035 87.3625 30.9936 87.3525 30.9837C87.3226 30.9441 87.2926 30.9046 87.2626 30.865C87.2626 30.8551 87.2426 30.8353 87.2326 30.8254C87.2126 30.7957 87.1926 30.7661 87.1726 30.7265C87.1726 30.7265 87.1726 30.7166 87.1626 30.7067C87.1626 30.7067 87.1626 30.6869 87.1526 30.6869C87.0926 30.5781 87.0326 30.4693 86.9827 30.3407C86.7227 29.7075 86.6328 29.0151 86.6827 28.3325C86.7027 28.006 86.7227 27.6696 86.7227 27.3234C86.7227 23.5345 85.1032 20.448 83.0838 20.3293C81.0644 20.448 79.4449 23.5345 79.4449 27.3234C79.4449 27.6696 79.4549 28.006 79.4849 28.3325C79.5349 29.0151 79.4449 29.7075 79.185 30.3407C79.135 30.4693 79.075 30.588 79.015 30.6869C79.015 30.6869 79.015 30.7067 79.005 30.7067C79.005 30.7067 79.005 30.7166 78.995 30.7265C78.975 30.7562 78.955 30.7957 78.935 30.8254C78.935 30.8353 78.915 30.8551 78.905 30.865C78.875 30.9046 78.845 30.9441 78.8151 30.9837C78.8151 30.9837 78.8051 30.9936 78.8051 31.0035C78.7751 31.0332 78.7551 31.0628 78.7251 31.0925C78.7151 31.1024 78.7051 31.1123 78.6951 31.1222C78.6751 31.142 78.6551 31.1618 78.6351 31.1816C78.6251 31.1915 78.6151 31.2013 78.5951 31.2112C78.5751 31.231 78.5551 31.2409 78.5351 31.2607C78.5251 31.2607 78.5151 31.2805 78.4951 31.2805C78.4652 31.3003 78.4352 31.3102 78.4052 31.33H78.3952C78.3552 31.3497 78.3252 31.3596 78.2852 31.3695H78.2652C78.2352 31.3695 78.2052 31.3893 78.1752 31.3893C78.1752 31.3893 78.1753 31.3893 78.1653 31.3893C78.1653 31.3893 78.1553 31.3893 78.1453 31.3893C78.1253 31.3893 78.0953 31.3893 78.0753 31.3893C78.0653 31.3893 78.0553 31.3893 78.0353 31.3893C78.0153 31.3893 77.9953 31.3893 77.9653 31.3893H77.9353C77.5554 31.3893 77.1755 31.2211 76.8057 30.9145C74.3564 28.8667 72.187 20.5766 71.2373 13.2758C71.1273 12.4646 71.0373 11.6731 70.9674 10.9015C70.9674 10.852 70.9574 10.7927 70.9474 10.7432C70.9474 10.6839 70.9274 10.6344 70.9274 10.5751C70.9174 10.4959 70.9074 10.4267 70.8974 10.3475C70.8974 10.2684 70.8774 10.1991 70.8674 10.12C70.8674 10.0606 70.8474 10.0013 70.8474 9.94192C70.8374 9.81332 70.8174 9.67482 70.8074 9.54621C70.8074 9.50664 70.8074 9.46707 70.7974 9.4275C70.7974 9.32857 70.7774 9.22965 70.7774 9.13072C70.7774 9.09115 70.7774 9.04169 70.7774 9.00211C70.7774 8.90319 70.7674 8.80426 70.7574 8.69544C70.7574 8.65587 70.7574 8.62619 70.7574 8.58662C70.7474 8.30962 70.7374 8.03263 70.7474 7.75563C70.7474 7.73585 70.7474 7.71606 70.7474 7.70617C70.7474 7.58746 70.7474 7.46874 70.7574 7.34014C70.7574 7.33025 70.7574 7.32035 70.7574 7.30057C70.7474 6.94443 70.7374 6.60808 70.7374 6.27173C70.7374 3.27424 72.5269 0.187713 76.2958 0.187713H76.3158C76.9756 0.0887859 77.7154 0.158035 78.5251 0.28664C79.6648 0.345996 80.8345 0.771383 81.7142 1.1572C82.444 1.47376 82.9738 1.77055 83.1038 1.79033C83.3837 1.74087 85.5831 0.405353 87.6725 0.28664C88.4922 0.158035 89.222 0.0887859 89.8818 0.187713H89.9018C93.6707 0.187713 95.4602 3.27424 95.4602 6.27173C95.4602 6.59819 95.4602 6.94443 95.4402 7.30057C95.4402 7.31046 95.4402 7.32035 95.4402 7.34014C95.4402 7.45885 95.4402 7.57756 95.4502 7.70617C95.4502 7.72596 95.4502 7.73585 95.4502 7.75563H95.4202Z" fill="url(#paint0_linear_2862_4356)"/>
<path d="M95.4202 7.70617C95.4202 7.70617 95.4102 7.53799 95.4102 7.34014C95.4102 7.33025 95.4102 7.32035 95.4102 7.30057C95.4202 6.94443 95.4302 6.60808 95.4302 6.27173C95.4302 3.27424 93.6407 0.187713 89.8718 0.187713H89.8518C89.192 0.0887859 88.4522 0.158035 87.6425 0.28664C85.5531 0.39546 83.3437 1.74087 83.0738 1.79033C82.7439 1.64194 82.274 1.41441 81.6842 1.1572C81.1944 0.939559 80.7745 0.751597 80.6845 0.721919C79.5648 0.237176 76.7257 -0.435528 74.5563 0.385567C74.0565 0.573529 73.4166 0.899988 73.0767 1.16709C72.7768 1.40452 72.227 1.90904 72.227 1.90904C72.4069 1.81012 76.5257 -0.55424 78.4052 1.05827C78.995 1.5628 79.145 2.26518 79.1949 2.52239C80.0347 6.40033 72.227 12.4843 71.2073 13.2758C72.167 20.5766 74.3264 28.8667 76.7757 30.9145C77.1456 31.2211 77.5254 31.3893 77.9053 31.3893H77.9353C77.9353 31.3893 77.9853 31.3893 78.0053 31.3893C78.0153 31.3893 78.0353 31.3893 78.0453 31.3893C78.0653 31.3893 78.0953 31.3893 78.1153 31.3893C78.1153 31.3893 78.1253 31.3893 78.1353 31.3893C78.1353 31.3893 78.1353 31.3893 78.1453 31.3893C78.1752 31.3893 78.2052 31.3794 78.2352 31.3695H78.2552C78.2952 31.3596 78.3252 31.3497 78.3652 31.33C78.3652 31.33 78.3652 31.33 78.3752 31.33C78.4052 31.3201 78.4352 31.3003 78.4652 31.2805C78.4752 31.2805 78.4852 31.2706 78.5051 31.2607C78.5251 31.2409 78.5451 31.231 78.5651 31.2112C78.5751 31.2112 78.5851 31.1915 78.6051 31.1816C78.6251 31.1618 78.6451 31.142 78.6651 31.1222C78.6751 31.1123 78.6851 31.1024 78.6951 31.0925C78.7251 31.0628 78.7451 31.0332 78.7751 31.0035C78.7751 31.0035 78.7751 30.9936 78.7851 30.9837C78.8151 30.9441 78.8451 30.9046 78.875 30.865C78.875 30.8551 78.895 30.8353 78.905 30.8254C78.925 30.7957 78.945 30.7661 78.965 30.7265C78.965 30.7265 78.965 30.7166 78.975 30.7067C78.975 30.7067 78.975 30.6869 78.985 30.6869C79.045 30.5781 79.105 30.4693 79.155 30.3407C79.4149 29.7075 79.5049 29.0151 79.4549 28.3325C79.4349 28.006 79.4149 27.6696 79.4149 27.3234C79.4149 23.5345 81.0344 20.448 83.0538 20.3293C85.0732 20.448 86.6927 23.5345 86.6927 27.3234C86.6927 27.6696 86.6827 28.006 86.6528 28.3325C86.6028 29.0151 86.6927 29.7075 86.9527 30.3407C87.0027 30.4693 87.0626 30.588 87.1226 30.6869C87.1226 30.6869 87.1226 30.7067 87.1326 30.7067C87.1326 30.7067 87.1326 30.7166 87.1426 30.7265C87.1626 30.7562 87.1826 30.7957 87.2026 30.8254C87.2026 30.8353 87.2226 30.8551 87.2326 30.865C87.2626 30.9046 87.2926 30.9441 87.3226 30.9837C87.3226 30.9837 87.3326 30.9936 87.3326 31.0035C87.3625 31.0332 87.3825 31.0628 87.4125 31.0925C87.4225 31.1024 87.4325 31.1123 87.4425 31.1222C87.4625 31.142 87.4825 31.1618 87.5025 31.1816C87.5125 31.1915 87.5225 31.2013 87.5425 31.2112C87.5625 31.231 87.5825 31.2409 87.6025 31.2607C87.6125 31.2607 87.6225 31.2805 87.6425 31.2805C87.6725 31.3003 87.7024 31.3102 87.7324 31.33H87.7424C87.7824 31.3497 87.8124 31.3596 87.8524 31.3695H87.8724C87.9024 31.3695 87.9324 31.3893 87.9624 31.3893C87.9624 31.3893 87.9624 31.3893 87.9724 31.3893C87.9724 31.3893 87.9824 31.3893 87.9924 31.3893C88.0123 31.3893 88.0423 31.3893 88.0623 31.3893C88.0723 31.3893 88.0823 31.3893 88.1023 31.3893C88.1223 31.3893 88.1423 31.3893 88.1723 31.3893H88.2023C91.0815 31.3893 93.7707 21.8033 94.8803 13.434C95.0003 12.5734 95.0903 11.7226 95.1702 10.9015C95.1702 10.852 95.1802 10.7927 95.1902 10.7432C95.1902 10.6839 95.2102 10.6344 95.2102 10.5751C95.2202 10.4959 95.2302 10.4267 95.2402 10.3475C95.2402 10.2684 95.2602 10.1991 95.2702 10.12C95.2702 10.0606 95.2902 10.0013 95.2902 9.94192C95.3002 9.81332 95.3202 9.67482 95.3302 9.54621C95.3302 9.50664 95.3302 9.46707 95.3402 9.4275C95.3402 9.32857 95.3602 9.22965 95.3602 9.13072C95.3602 9.13072 95.3602 9.07136 95.3602 9.00211C95.3802 8.71523 95.4002 8.04252 95.3902 7.71606L95.4202 7.70617Z" fill="#E8E6D4"/>
<path d="M86.6927 27.2838C86.6927 23.4949 85.0732 20.4084 83.0538 20.2897C81.0344 20.4084 79.4149 23.4949 79.4149 27.2838C79.4149 27.6301 79.4249 27.9664 79.4549 28.2929C79.5049 28.9755 79.4149 29.668 79.155 30.3011C79.105 30.4297 79.045 30.5484 78.985 30.6474C78.985 30.6474 78.985 30.6671 78.975 30.6671C78.975 30.6671 78.975 30.677 78.965 30.6869C78.945 30.7166 78.925 30.7562 78.905 30.7859C78.905 30.7957 78.885 30.8155 78.875 30.8254C78.8451 30.865 78.8151 30.9046 78.7851 30.9441C78.7851 30.9441 78.7751 30.954 78.7751 30.9639C78.7451 30.9936 78.7251 31.0233 78.6951 31.053C78.6851 31.0628 78.6751 31.0727 78.6651 31.0826C78.6451 31.1024 78.6251 31.1222 78.6051 31.142C78.5951 31.1519 78.5851 31.1618 78.5651 31.1717C78.5451 31.1915 78.5251 31.2013 78.5051 31.2211C78.4951 31.2211 78.4852 31.2409 78.4652 31.2409C78.4352 31.2607 78.4052 31.2706 78.3752 31.2904H78.3652C78.3252 31.3102 78.2952 31.3201 78.2552 31.33H78.2352C78.2052 31.33 78.1752 31.3497 78.1453 31.3497C78.1453 31.3497 78.1453 31.3497 78.1353 31.3497C78.1353 31.3497 78.1253 31.3497 78.1153 31.3497C78.0953 31.3497 78.0653 31.3497 78.0453 31.3497C78.0353 31.3497 78.0253 31.3497 78.0053 31.3497C77.9853 31.3497 77.9653 31.3497 77.9353 31.3497H77.9053C77.5254 31.3497 77.1456 31.1816 76.7757 30.8749C76.6157 28.7776 76.8257 26.5518 77.4555 24.3061C79.7548 16.1545 86.7527 10.9609 93.0909 12.702C93.7207 12.8702 94.3105 13.1076 94.8803 13.3945C93.7707 21.7637 91.0815 31.3497 88.2023 31.3497H88.1723C88.1723 31.3497 88.1223 31.3497 88.1023 31.3497C88.0923 31.3497 88.0723 31.3497 88.0623 31.3497C88.0423 31.3497 88.0123 31.3497 87.9924 31.3497C87.9924 31.3497 87.9824 31.3497 87.9724 31.3497C87.9724 31.3497 87.9724 31.3497 87.9624 31.3497C87.9324 31.3497 87.9024 31.3398 87.8724 31.33H87.8524C87.8124 31.3201 87.7824 31.3102 87.7424 31.2904C87.7424 31.2904 87.7424 31.2904 87.7324 31.2904C87.7024 31.2805 87.6725 31.2607 87.6425 31.2409C87.6325 31.2409 87.6225 31.231 87.6025 31.2211C87.5825 31.2013 87.5625 31.1915 87.5425 31.1717C87.5325 31.1717 87.5225 31.1519 87.5025 31.142C87.4825 31.1222 87.4625 31.1024 87.4425 31.0826C87.4325 31.0727 87.4225 31.0628 87.4125 31.053C87.3825 31.0233 87.3625 30.9936 87.3326 30.9639C87.3326 30.9639 87.3326 30.954 87.3226 30.9441C87.2926 30.9046 87.2626 30.865 87.2326 30.8254C87.2326 30.8155 87.2126 30.7957 87.2026 30.7859C87.1826 30.7562 87.1626 30.7265 87.1426 30.6869C87.1426 30.6869 87.1426 30.677 87.1326 30.6671C87.1326 30.6671 87.1326 30.6474 87.1226 30.6474C87.0626 30.5385 87.0027 30.4297 86.9527 30.3011C86.6927 29.668 86.6028 28.9755 86.6528 28.2929C86.6727 27.9664 86.6927 27.6301 86.6927 27.2838Z" fill="url(#paint1_linear_2862_4356)"/>
<path d="M89.332 1.58258L90.6316 3.92716L92.9909 5.20331L90.6316 6.48937L89.332 8.82405L88.0423 6.48937L85.673 5.20331L88.0423 3.92716L89.332 1.58258Z" fill="url(#paint2_linear_2862_4356)"/>
<path d="M17.6031 44.3685H18.4628V47H17.4431V45.2391H12.6345V38.8385H13.6942V44.3389H16.5434V38.8385H17.6031V44.3685Z" fill="#E8E6D4"/>
<path d="M19.8724 38.8385H20.8421V42.1625C20.8421 42.5087 20.8421 42.8648 20.8121 43.2111C20.7821 43.5573 20.7821 43.8047 20.7721 43.9333H20.8121L24.1211 38.8286H25.3508V45.2292H24.3811V41.925C24.3811 41.4205 24.4111 40.8072 24.461 40.085H24.4211L21.102 45.2292H19.8624V38.8286L19.8724 38.8385Z" fill="#E8E6D4"/>
<path d="M29.8095 45.3281V44.3389H29.6595C29.1297 44.3389 28.6698 44.2399 28.2699 44.052C27.87 43.864 27.5601 43.5771 27.3302 43.1913C27.1003 42.8055 26.9903 42.3801 26.9903 41.9151C26.9903 41.4502 27.0903 41.0545 27.3002 40.6885C27.5101 40.3224 27.8001 40.0355 28.19 39.8377C28.5798 39.6299 29.0297 39.531 29.5495 39.531H29.8095V38.7396H30.8092V39.531H31.0791C31.5989 39.531 32.0588 39.6299 32.4387 39.8377C32.8186 40.0454 33.1185 40.3224 33.3184 40.6885C33.5184 41.0446 33.6184 41.4601 33.6184 41.925C33.6184 42.39 33.5084 42.8253 33.2785 43.2111C33.0485 43.587 32.7386 43.8739 32.3387 44.0619C31.9388 44.2498 31.479 44.3488 30.9391 44.3488H30.7992V45.338H29.7995L29.8095 45.3281ZM29.8095 40.3818H29.5895C29.0997 40.3818 28.7198 40.5203 28.4399 40.7973C28.16 41.0743 28.02 41.4403 28.02 41.9053C28.02 42.3999 28.17 42.7956 28.4699 43.0726C28.7698 43.3595 29.1897 43.498 29.7295 43.498H29.8095V40.3719V40.3818ZM30.8092 43.5079H30.8992C31.429 43.5079 31.8489 43.3694 32.1488 43.0825C32.4487 42.7956 32.5987 42.4098 32.5987 41.9053C32.5987 41.4403 32.4587 41.0644 32.1788 40.7973C31.8989 40.5203 31.519 40.3818 31.0291 40.3818H30.8092V43.5079Z" fill="#E8E6D4"/>
<path d="M39.5666 40.7676C39.5666 41.4403 39.3467 41.9448 38.9068 42.301C38.4669 42.6571 37.8371 42.8352 37.0174 42.8352H36.3476V45.2292H35.2879V38.8286H37.1473C37.9571 38.8286 38.5569 38.9968 38.9668 39.3233C39.3667 39.6497 39.5666 40.1345 39.5666 40.7676ZM36.3476 41.9646H36.9074C37.4472 41.9646 37.8471 41.8756 38.097 41.6876C38.347 41.4997 38.4769 41.2128 38.4769 40.8072C38.4769 40.4411 38.367 40.1641 38.137 39.9861C37.9071 39.808 37.5572 39.719 37.0773 39.719H36.3476V41.9646Z" fill="#E8E6D4"/>
<path d="M46.9644 42.024C46.9644 43.0627 46.7045 43.8739 46.1747 44.4576C45.6448 45.0314 44.905 45.3281 43.9353 45.3281C42.9656 45.3281 42.2058 45.0412 41.686 44.4675C41.1661 43.8937 40.8962 43.0825 40.8962 42.024C40.8962 40.9655 41.1561 40.1542 41.686 39.5904C42.2158 39.0265 42.9656 38.7396 43.9453 38.7396C44.925 38.7396 45.6548 39.0265 46.1747 39.6003C46.7045 40.174 46.9644 40.9852 46.9644 42.0339V42.024ZM42.0259 42.024C42.0259 42.8154 42.1858 43.4089 42.5057 43.8145C42.8256 44.2201 43.3055 44.4279 43.9353 44.4279C44.5651 44.4279 45.035 44.23 45.3549 43.8244C45.6748 43.4188 45.8348 42.8253 45.8348 42.024C45.8348 41.2227 45.6748 40.639 45.3549 40.2334C45.035 39.8278 44.5651 39.62 43.9353 39.62C43.3055 39.62 42.8256 39.8278 42.4957 40.2334C42.1758 40.639 42.0159 41.2326 42.0159 42.024H42.0259Z" fill="#E8E6D4"/>
<path d="M48.7139 38.8385H50.6334C51.5231 38.8385 52.1729 38.9671 52.5628 39.2243C52.9627 39.4815 53.1626 39.8871 53.1626 40.4411C53.1626 40.8171 53.0626 41.1237 52.8727 41.3711C52.6827 41.6184 52.4028 41.7766 52.0329 41.836V41.8756C52.4928 41.9646 52.8227 42.1229 53.0326 42.3801C53.2426 42.6274 53.3526 42.9638 53.3526 43.3892C53.3526 43.9629 53.1526 44.418 52.7427 44.7445C52.3328 45.0709 51.773 45.2292 51.0532 45.2292H48.7139V38.8286V38.8385ZM49.7736 41.4799H50.7933C51.2332 41.4799 51.5631 41.4106 51.763 41.2721C51.963 41.1336 52.0729 40.8962 52.0729 40.5697C52.0729 40.273 51.963 40.0553 51.743 39.9168C51.5231 39.7783 51.1732 39.719 50.6933 39.719H49.7736V41.4898V41.4799ZM49.7736 42.3306V44.3586H50.8933C51.3331 44.3586 51.673 44.2795 51.893 44.1113C52.1229 43.9432 52.2329 43.6761 52.2329 43.3199C52.2329 42.9836 52.1229 42.7362 51.893 42.578C51.663 42.4197 51.3132 42.3405 50.8433 42.3405H49.7736V42.3306Z" fill="#E8E6D4"/>
<path d="M59.3508 43.31C59.3508 43.9432 59.1408 44.418 58.731 44.7445C58.3211 45.0709 57.7113 45.2292 56.9015 45.2292H55.0521V38.8286H56.1117V41.4304H56.8615C57.6713 41.4304 58.2811 41.5887 58.711 41.9151C59.1308 42.2317 59.3408 42.6967 59.3408 43.31H59.3508ZM56.1217 44.3685H56.8515C57.3214 44.3685 57.6813 44.2894 57.9212 44.1212C58.1611 43.953 58.2811 43.6859 58.2811 43.3199C58.2811 42.9737 58.1611 42.7165 57.9312 42.5681C57.7013 42.4197 57.3114 42.3306 56.7516 42.3306H56.1217V44.3784V44.3685ZM61.3202 45.2391H60.2605V38.8385H61.3202V45.2391Z" fill="#E8E6D4"/>
<path d="M67.0485 45.2391H63.3896V38.8385H67.0485V39.719H64.4493V41.4601H66.8886V42.3405H64.4493V44.3488H67.0485V45.2391Z" fill="#E8E6D4"/>
<path d="M74.2764 39.6398C73.6666 39.6398 73.1867 39.8575 72.8468 40.2829C72.4969 40.7082 72.327 41.3018 72.327 42.0438C72.327 42.7857 72.4969 43.4188 72.8268 43.8244C73.1567 44.23 73.6466 44.4279 74.2764 44.4279C74.5463 44.4279 74.8162 44.3982 75.0762 44.3488C75.3361 44.2993 75.596 44.23 75.8759 44.141V45.0412C75.3661 45.2292 74.7962 45.3281 74.1464 45.3281C73.1967 45.3281 72.4769 45.0412 71.9671 44.4774C71.4572 43.9135 71.2073 43.1023 71.2073 42.0438C71.2073 41.3809 71.3273 40.7973 71.5772 40.2927C71.8271 39.7882 72.177 39.4123 72.6469 39.1452C73.1167 38.8781 73.6566 38.7495 74.2864 38.7495C74.9462 38.7495 75.556 38.888 76.1159 39.165L75.736 40.0355C75.516 39.9366 75.2861 39.8476 75.0462 39.7684C74.8062 39.6893 74.5463 39.6497 74.2764 39.6497V39.6398Z" fill="#E8E6D4"/>
<path d="M79.8648 45.2391H78.8051V39.7388H76.9056V38.8385H81.7642V39.7388H79.8648V45.2391Z" fill="#E8E6D4"/>
<path d="M88.8621 42.024C88.8621 43.0627 88.6022 43.8739 88.0723 44.4576C87.5425 45.0314 86.8027 45.3281 85.833 45.3281C84.8633 45.3281 84.1035 45.0412 83.5837 44.4675C83.0638 43.8937 82.7939 43.0825 82.7939 42.024C82.7939 40.9655 83.0538 40.1542 83.5837 39.5904C84.1135 39.0265 84.8633 38.7396 85.843 38.7396C86.8227 38.7396 87.5525 39.0265 88.0723 39.6003C88.6022 40.174 88.8621 40.9852 88.8621 42.0339V42.024ZM83.9336 42.024C83.9336 42.8154 84.0935 43.4089 84.4134 43.8145C84.7333 44.2201 85.2132 44.4279 85.843 44.4279C86.4728 44.4279 86.9427 44.23 87.2626 43.8244C87.5825 43.4188 87.7424 42.8253 87.7424 42.024C87.7424 41.2227 87.5825 40.639 87.2626 40.2334C86.9427 39.8278 86.4728 39.62 85.843 39.62C85.2132 39.62 84.7333 39.8278 84.4034 40.2334C84.0835 40.639 83.9236 41.2326 83.9236 42.024H83.9336Z" fill="#E8E6D4"/>
<path d="M93.4108 45.2391L91.5313 39.897H91.4913C91.5413 40.6885 91.5713 41.4403 91.5713 42.1328V45.249H90.6116V38.8484H92.1012L93.9006 43.9432H93.9306L95.7801 38.8484H97.2796V45.249H96.2599V42.0833C96.2599 41.7668 96.2599 41.3513 96.2799 40.8368C96.2999 40.3224 96.3099 40.0157 96.3199 39.9069H96.2799L94.3405 45.249H93.4108V45.2391Z" fill="#E8E6D4"/>
<path d="M103.358 45.2391L102.708 43.4584H100.239L99.6089 45.2391H98.4893L100.909 38.8088H102.058L104.478 45.2391H103.358ZM102.428 42.5582L101.818 40.8171C101.778 40.6983 101.708 40.5203 101.638 40.2631C101.568 40.0059 101.508 39.8278 101.478 39.7091C101.398 40.0652 101.278 40.4609 101.129 40.8863L100.549 42.5582H102.438H102.428Z" fill="#E8E6D4"/>
<path d="M107.936 45.2391H106.877V39.7388H104.977V38.8385H109.836V39.7388H107.936V45.2391Z" fill="#E8E6D4"/>
<path d="M116.934 42.024C116.934 43.0627 116.674 43.8739 116.144 44.4576C115.614 45.0314 114.874 45.3281 113.905 45.3281C112.935 45.3281 112.175 45.0412 111.655 44.4675C111.136 43.8937 110.866 43.0825 110.866 42.024C110.866 40.9655 111.126 40.1542 111.655 39.5904C112.185 39.0265 112.935 38.7396 113.915 38.7396C114.894 38.7396 115.624 39.0265 116.144 39.6003C116.674 40.174 116.934 40.9852 116.934 42.0339V42.024ZM111.995 42.024C111.995 42.8154 112.155 43.4089 112.475 43.8145C112.795 44.2201 113.275 44.4279 113.905 44.4279C114.535 44.4279 115.004 44.23 115.324 43.8244C115.644 43.4188 115.804 42.8253 115.804 42.024C115.804 41.2227 115.644 40.639 115.324 40.2334C115.004 39.8278 114.535 39.62 113.905 39.62C113.275 39.62 112.795 39.8278 112.465 40.2334C112.145 40.639 111.985 41.2326 111.985 42.024H111.995Z" fill="#E8E6D4"/>
<path d="M123.532 45.2391H122.472V39.7388H120.633C120.403 41.6085 120.213 42.8747 120.073 43.5474C119.933 44.2201 119.733 44.695 119.483 44.9522C119.233 45.2193 118.893 45.3479 118.473 45.338C118.263 45.338 118.054 45.2985 117.854 45.2292V44.3586C118.024 44.4279 118.183 44.4675 118.343 44.4675C118.553 44.4675 118.723 44.3389 118.843 44.0915C118.963 43.8343 119.093 43.2803 119.233 42.4197C119.373 41.559 119.543 40.362 119.743 38.8385H123.522V45.2391H123.532Z" fill="#E8E6D4"/>
<path d="M131.35 42.024C131.35 43.0627 131.09 43.8739 130.56 44.4576C130.03 45.0314 129.29 45.3281 128.32 45.3281C127.351 45.3281 126.591 45.0412 126.071 44.4675C125.551 43.8937 125.281 43.0825 125.281 42.024C125.281 40.9655 125.541 40.1542 126.071 39.5904C126.601 39.0265 127.351 38.7396 128.33 38.7396C129.31 38.7396 130.04 39.0265 130.56 39.6003C131.09 40.174 131.35 40.9852 131.35 42.0339V42.024ZM126.411 42.024C126.411 42.8154 126.571 43.4089 126.891 43.8145C127.211 44.2201 127.691 44.4279 128.32 44.4279C128.95 44.4279 129.42 44.23 129.74 43.8244C130.06 43.4188 130.22 42.8253 130.22 42.024C130.22 41.2227 130.06 40.639 129.74 40.2334C129.42 39.8278 128.95 39.62 128.32 39.62C127.691 39.62 127.211 39.8278 126.881 40.2334C126.561 40.639 126.401 41.2326 126.401 42.024H126.411Z" fill="#E8E6D4"/>
<path d="M136.938 38.8385V39.7388H134.159V45.2391H133.099V38.8385H136.938Z" fill="#E8E6D4"/>
<path d="M138.358 38.8385H139.327V42.1625C139.327 42.5087 139.327 42.8648 139.297 43.2111C139.267 43.5573 139.267 43.8047 139.257 43.9333H139.297L142.606 38.8286H143.836V45.2292H142.866V41.925C142.866 41.4205 142.896 40.8072 142.946 40.085H142.906L139.587 45.2292H138.348V38.8286L138.358 38.8385Z" fill="#E8E6D4"/>
<path d="M145.895 38.8385H146.865V42.1625C146.865 42.5087 146.865 42.8648 146.835 43.2111C146.805 43.5573 146.805 43.8047 146.795 43.9333H146.835L150.144 38.8286H151.374V45.2292H150.404V41.925C150.404 41.4205 150.434 40.8072 150.484 40.085H150.444L147.125 45.2292H145.885V38.8286L145.895 38.8385Z" fill="#E8E6D4"/>
<defs>
<linearGradient id="paint0_linear_2862_4356" x1="-0.198949" y1="19.0566" x2="84.0288" y2="103.152" gradientUnits="userSpaceOnUse">
<stop stop-color="white"/>
<stop offset="0.16" stop-color="#F6F6F6"/>
<stop offset="0.43" stop-color="#DEDDDD"/>
<stop offset="0.76" stop-color="#B7B6B6"/>
<stop offset="1" stop-color="#979696"/>
</linearGradient>
<linearGradient id="paint1_linear_2862_4356" x1="95.2806" y1="28.1655" x2="68.8719" y2="-78.8249" gradientUnits="userSpaceOnUse">
<stop stop-color="white"/>
<stop offset="0.16" stop-color="#F6F6F6"/>
<stop offset="0.43" stop-color="#DEDDDD"/>
<stop offset="0.76" stop-color="#B7B6B6"/>
<stop offset="1" stop-color="#979696"/>
</linearGradient>
<linearGradient id="paint2_linear_2862_4356" x1="-88.9454" y1="23.5" x2="434.645" y2="23.5" gradientUnits="userSpaceOnUse">
<stop stop-color="white"/>
<stop offset="0.16" stop-color="#F6F6F6"/>
<stop offset="0.43" stop-color="#DEDDDD"/>
<stop offset="0.76" stop-color="#B7B6B6"/>
<stop offset="1" stop-color="#979696"/>
</linearGradient>
</defs>
</svg>
