<svg width="30" height="30" viewBox="0 0 30 30" fill="none" xmlns="http://www.w3.org/2000/svg">
<rect x="0.5" y="0.5" width="29" height="29" rx="14.5" fill="#E8E6D4"/>
<rect x="0.5" y="0.5" width="29" height="29" rx="14.5" stroke="#76824A"/>
<path d="M20.2407 11.6867C19.8304 11.199 19.0728 11 17.626 11H12.374C10.8941 11 10.1236 11.2118 9.71484 11.7311C9.31628 12.2374 9.31628 12.9835 9.31628 14.016V15.984C9.31628 17.9844 9.78917 19 12.374 19H17.626C18.8807 19 19.5759 18.8244 20.0257 18.394C20.487 17.9525 20.6838 17.2318 20.6838 15.984V14.016C20.6838 12.9271 20.6529 12.1767 20.2407 11.6867ZM16.6142 15.2717L14.2294 16.5181C14.176 16.546 14.1177 16.5598 14.0595 16.5598C13.9936 16.5598 13.9278 16.5421 13.8695 16.5068C13.7598 16.4403 13.6928 16.3214 13.6928 16.1931V13.7083C13.6928 13.5802 13.7596 13.4614 13.8691 13.3949C13.9786 13.3284 14.1149 13.3238 14.2285 13.3829L16.6134 14.6213C16.7347 14.6843 16.8109 14.8095 16.8111 14.9462C16.8113 15.083 16.7354 15.2084 16.6142 15.2717Z" fill="#76824A"/>
</svg>
