<svg width="31" height="31" viewBox="0 0 31 31" fill="none" xmlns="http://www.w3.org/2000/svg">
<rect x="0.362549" y="0.5" width="30" height="30" rx="15" fill="#76824A"/>
<path d="M20.6031 12.1867C20.1928 11.699 19.4352 11.5 17.9884 11.5H12.7364C11.2565 11.5 10.4861 11.7118 10.0773 12.2311C9.67871 12.7374 9.67871 13.4835 9.67871 14.516V16.484C9.67871 18.4844 10.1516 19.5 12.7364 19.5H17.9884C19.2431 19.5 19.9383 19.3244 20.3881 18.894C20.8494 18.4525 21.0462 17.7318 21.0462 16.484V14.516C21.0462 13.4271 21.0154 12.6767 20.6031 12.1867ZM16.9767 15.7717L14.5918 17.0181C14.5385 17.046 14.4802 17.0598 14.4219 17.0598C14.356 17.0598 14.2902 17.0421 14.2319 17.0068C14.1222 16.9403 14.0552 16.8214 14.0552 16.6931V14.2083C14.0552 14.0802 14.122 13.9614 14.2315 13.8949C14.3411 13.8284 14.4773 13.8238 14.5909 13.8829L16.9758 15.1213C17.0972 15.1843 17.1734 15.3095 17.1736 15.4462C17.1737 15.583 17.0978 15.7084 16.9767 15.7717Z" fill="#E8E6D4"/>
</svg>
